<?xml version="1.0" encoding="UTF-8" standalone="no"?>
<!-- Created with Inkscape (http://www.inkscape.org/) -->

<svg
   version="1.1"
   id="svg1"
   width="172.06104"
   height="348.50342"
   viewBox="0 0 172.06104 348.50342"
   xmlns="http://www.w3.org/2000/svg"
   xmlns:svg="http://www.w3.org/2000/svg">
  <defs
     id="defs1" />
  <g
     id="g1"
     transform="translate(-2322.3693,-671.18671)">
    <g
       id="group-R5">
      <path
         id="path2"
         d="M 3415.8194,3419.0386 H 215.81951 V -4.9612824 H 3415.8194 V 3419.0386"
         style="fill:#ffffff;fill-opacity:1;fill-rule:nonzero;stroke:none;stroke-width:0.133333" />
      <path
         id="path3"
         d="M 70960,0 H 23904.6 V 25680 H 70960 V 0"
         style="fill:#14ae71;fill-opacity:1;fill-rule:nonzero;stroke:none"
         transform="matrix(0.13333333,0,0,-0.13333333,0,3424)" />
      <path
         id="path4"
         d="m 63362.2,14792.1 v 104.8 h -308.1 c -160.5,0 -235.4,-42.8 -235.4,-151.9 0,-102.7 83.5,-169.1 220.4,-169.1 175.5,0 310.3,92.1 323.1,216.2 z m 2.1,-261.1 c -81.3,-100.6 -211.8,-149.8 -376.6,-149.8 -246,0 -400.1,151.9 -400.1,353.1 0,207.6 156.2,340.2 430.1,342.4 h 344.5 v 34.2 c 0,143.4 -92,229 -271.8,229 -109.1,0 -222.5,-38.6 -335.9,-115.6 l -100.6,171.2 c 158.4,94.1 273.9,143.4 490,143.4 293.2,0 458,-149.8 460.1,-400.2 l 2.1,-746.8 h -241.8 v 139.1"
         style="fill:#141113;fill-opacity:1;fill-rule:nonzero;stroke:none"
         transform="matrix(0.13333333,0,0,-0.13333333,0,3424)" />
      <path
         id="path5"
         d="m 64774.4,14956.8 c 0,220.4 -143.3,374.5 -348.8,374.5 -205.4,0 -348.7,-156.2 -350.9,-374.5 2.2,-216.1 143.4,-370.2 350.9,-370.2 205.5,0 348.8,154.1 348.8,370.2 z m 246.1,-564.9 h -246.1 v 194.7 c -81.3,-132.6 -218.2,-205.4 -400.1,-205.4 -327.4,0 -545.7,237.5 -545.7,584.2 0,342.4 220.4,575.6 541.4,575.6 184,0 321,-74.9 404.4,-207.6 v 646.3 h 246.1 v -1587.8"
         style="fill:#141113;fill-opacity:1;fill-rule:nonzero;stroke:none"
         transform="matrix(0.13333333,0,0,-0.13333333,0,3424)" />
      <path
         id="path6"
         d="m 66133.1,15425.4 -89.8,-181.8 c -100.6,62 -226.8,100.5 -327.4,100.5 -96.3,0 -166.9,-32.1 -166.9,-113.4 0,-209.7 605.5,-96.3 603.4,-509.2 0,-233.3 -207.6,-338.1 -436.5,-338.1 -166.9,0 -344.5,55.6 -457.9,158.3 l 87.7,175.5 c 98.4,-87.8 256.8,-141.3 380.9,-141.3 104.8,0 186.1,36.4 186.1,122 0,233.3 -599.1,102.7 -597,513.6 0,231.1 201.2,329.5 419.5,329.5 143.3,0 295.2,-42.8 397.9,-115.6"
         style="fill:#141113;fill-opacity:1;fill-rule:nonzero;stroke:none"
         transform="matrix(0.13333333,0,0,-0.13333333,0,3424)" />
      <path
         id="path7"
         d="m 67081,14792.1 v 104.8 h -308.1 c -160.5,0 -235.4,-42.8 -235.4,-151.9 0,-102.7 83.5,-169.1 220.4,-169.1 175.5,0 310.3,92.1 323.1,216.2 z m 2.2,-261.1 c -81.3,-100.6 -211.9,-149.8 -376.6,-149.8 -246.1,0 -400.2,151.9 -400.2,353.1 0,207.6 156.2,340.2 430.1,342.4 h 344.5 v 34.2 c 0,143.4 -92,229 -271.7,229 -109.2,0 -222.6,-38.6 -336,-115.6 l -100.6,171.2 c 158.4,94.1 273.9,143.4 490.1,143.4 293.1,0 457.9,-149.8 460,-400.2 l 2.2,-746.8 h -241.8 v 139.1"
         style="fill:#141113;fill-opacity:1;fill-rule:nonzero;stroke:none"
         transform="matrix(0.13333333,0,0,-0.13333333,0,3424)" />
      <path
         id="path8"
         d="m 67665.2,14391.9 v 1587.8 h 246 v -1587.8 h -246"
         style="fill:#141113;fill-opacity:1;fill-rule:nonzero;stroke:none"
         transform="matrix(0.13333333,0,0,-0.13333333,0,3424)" />
      <path
         id="path9"
         d="m 68929.8,14464.7 c -89.9,-53.5 -184.1,-83.5 -280.4,-83.5 -171.1,0 -318.8,98.5 -318.8,331.7 v 590.6 h -160.5 v 184 h 160.5 v 312.4 h 244 v -312.4 h 335.9 v -184 h -335.9 v -545.7 c 0,-117.7 44.9,-154 121.9,-154 51.4,0 104.9,17.1 171.2,49.2 l 62.1,-188.3"
         style="fill:#141113;fill-opacity:1;fill-rule:nonzero;stroke:none"
         transform="matrix(0.13333333,0,0,-0.13333333,0,3424)" />
      <path
         id="path10"
         d="m 62054.8,15998.6 c -46.6,52.2 -113.5,82.1 -183.5,82.1 h -798 c -70,0 -136.9,-29.9 -183.6,-82.1 -46.6,-52.2 -68.9,-122.1 -61.1,-191.7 l 96.7,-860.3 c 14,-124.7 119.2,-218.8 244.7,-218.8 h 604.6 c 125.5,0 230.7,94.1 244.7,218.8 l 96.7,860.3 c 7.8,69.6 -14.5,139.5 -61.2,191.7"
         style="fill:#141113;fill-opacity:1;fill-rule:nonzero;stroke:none"
         transform="matrix(0.13333333,0,0,-0.13333333,0,3424)" />
      <path
         id="path11"
         d="m 61352,13933.2 -49.4,52.4 c -27,28.6 -71.5,31.5 -102,6.7 l -24.2,-19.6 c -27.6,-22.4 -35.8,-61.1 -19.5,-92.7 l 30.2,-59 c 19.9,-38.8 68.5,-52.6 105.8,-30 l 43.4,26.3 c 41,24.8 48.6,81.1 15.7,115.9"
         style="fill:#141113;fill-opacity:1;fill-rule:nonzero;stroke:none"
         transform="matrix(0.13333333,0,0,-0.13333333,0,3424)" />
      <path
         id="path12"
         d="m 61757.9,13917.5 -72.9,41.3 c -36.8,20.9 -83.5,7.4 -103.4,-29.9 l -22.6,-42.1 c -17.8,-33.4 -8.1,-74.8 22.7,-96.7 l 53.2,-37.9 c 28.9,-20.5 68.1,-18.2 94.3,5.7 l 42.3,38.7 c 37.8,34.4 30.9,95.7 -13.6,120.9"
         style="fill:#141113;fill-opacity:1;fill-rule:nonzero;stroke:none"
         transform="matrix(0.13333333,0,0,-0.13333333,0,3424)" />
      <path
         id="path13"
         d="m 61485,13638.9 -29,19.7 c -25.3,17.1 -58.4,17.2 -83.8,0.3 l -29.7,-19.8 c -37.5,-25 -44.8,-77.2 -15.4,-111.5 l 29.5,-34.4 c 30.2,-35.2 84.7,-35 114.6,0.5 l 29.1,34.5 c 28.8,34.2 21.7,85.7 -15.3,110.7"
         style="fill:#141113;fill-opacity:1;fill-rule:nonzero;stroke:none"
         transform="matrix(0.13333333,0,0,-0.13333333,0,3424)" />
      <path
         id="path14"
         d="m 61872.1,14560.3 c -124.4,-45.4 -259.1,-70.3 -399.8,-70.3 -140.7,0 -275.4,24.9 -399.8,70.3 -47.1,17.2 -94.9,-24.5 -82.1,-73 56.1,-213.7 250.5,-371.4 481.9,-371.4 231.3,0 425.8,157.7 481.9,371.4 12.8,48.5 -35,90.2 -82.1,73"
         style="fill:#141113;fill-opacity:1;fill-rule:nonzero;stroke:none"
         transform="matrix(0.13333333,0,0,-0.13333333,0,3424)" />
      <path
         id="path15"
         d="m 39522.2,14792.1 v 104.8 h -308.1 c -160.5,0 -235.4,-42.8 -235.4,-151.9 0,-102.7 83.5,-169.1 220.4,-169.1 175.5,0 310.3,92.1 323.1,216.2 z m 2.1,-261.1 c -81.3,-100.6 -211.8,-149.8 -376.6,-149.8 -246,0 -400.1,151.9 -400.1,353.1 0,207.6 156.2,340.2 430.1,342.4 h 344.5 v 34.2 c 0,143.4 -92,229 -271.7,229 -109.2,0 -222.6,-38.6 -336,-115.6 l -100.6,171.2 c 158.4,94.1 273.9,143.4 490,143.4 293.2,0 458,-149.8 460.1,-400.2 l 2.1,-746.8 h -241.8 v 139.1"
         style="fill:#ffffff;fill-opacity:1;fill-rule:nonzero;stroke:none"
         transform="matrix(0.13333333,0,0,-0.13333333,0,3424)" />
      <path
         id="path16"
         d="m 40934.4,14956.8 c 0,220.4 -143.3,374.5 -348.8,374.5 -205.4,0 -348.7,-156.2 -350.9,-374.5 2.2,-216.1 143.4,-370.2 350.9,-370.2 205.5,0 348.8,154.1 348.8,370.2 z m 246.1,-564.9 h -246.1 v 194.7 c -81.3,-132.6 -218.2,-205.4 -400.1,-205.4 -327.4,0 -545.7,237.5 -545.7,584.2 0,342.4 220.4,575.6 541.4,575.6 184,0 321,-74.9 404.4,-207.6 v 646.3 h 246.1 v -1587.8"
         style="fill:#ffffff;fill-opacity:1;fill-rule:nonzero;stroke:none"
         transform="matrix(0.13333333,0,0,-0.13333333,0,3424)" />
      <path
         id="path17"
         d="m 42293.2,15425.4 -89.9,-181.8 c -100.6,62 -226.8,100.5 -327.4,100.5 -96.3,0 -166.9,-32.1 -166.9,-113.4 0,-209.7 605.6,-96.3 603.4,-509.2 0,-233.3 -207.6,-338.1 -436.5,-338.1 -166.9,0 -344.5,55.6 -457.9,158.3 l 87.7,175.5 c 98.4,-87.8 256.8,-141.3 380.9,-141.3 104.8,0 186.2,36.4 186.2,122 0,233.3 -599.2,102.7 -597,513.6 0,231.1 201.1,329.5 419.4,329.5 143.3,0 295.2,-42.8 398,-115.6"
         style="fill:#ffffff;fill-opacity:1;fill-rule:nonzero;stroke:none"
         transform="matrix(0.13333333,0,0,-0.13333333,0,3424)" />
      <path
         id="path18"
         d="m 43241,14792.1 v 104.8 h -308.1 c -160.5,0 -235.4,-42.8 -235.4,-151.9 0,-102.7 83.5,-169.1 220.4,-169.1 175.5,0 310.3,92.1 323.1,216.2 z m 2.2,-261.1 c -81.3,-100.6 -211.9,-149.8 -376.6,-149.8 -246.1,0 -400.2,151.9 -400.2,353.1 0,207.6 156.2,340.2 430.1,342.4 h 344.5 v 34.2 c 0,143.4 -92,229 -271.7,229 -109.2,0 -222.6,-38.6 -336,-115.6 l -100.5,171.2 c 158.3,94.1 273.9,143.4 490,143.4 293.1,0 457.9,-149.8 460,-400.2 l 2.2,-746.8 h -241.8 v 139.1"
         style="fill:#ffffff;fill-opacity:1;fill-rule:nonzero;stroke:none"
         transform="matrix(0.13333333,0,0,-0.13333333,0,3424)" />
      <path
         id="path19"
         d="m 43825.2,14391.9 v 1587.8 h 246 v -1587.8 h -246"
         style="fill:#ffffff;fill-opacity:1;fill-rule:nonzero;stroke:none"
         transform="matrix(0.13333333,0,0,-0.13333333,0,3424)" />
      <path
         id="path20"
         d="m 45089.8,14464.7 c -89.9,-53.5 -184.1,-83.5 -280.4,-83.5 -171.1,0 -318.8,98.5 -318.8,331.7 v 590.6 h -160.5 v 184 h 160.5 v 312.4 h 244 v -312.4 h 335.9 v -184 h -335.9 v -545.7 c 0,-117.7 44.9,-154 121.9,-154 51.4,0 104.9,17.1 171.2,49.2 l 62.1,-188.3"
         style="fill:#ffffff;fill-opacity:1;fill-rule:nonzero;stroke:none"
         transform="matrix(0.13333333,0,0,-0.13333333,0,3424)" />
      <path
         id="path21"
         d="m 38214.9,15998.6 c -46.7,52.2 -113.6,82.1 -183.6,82.1 h -798 c -70,0 -136.9,-29.9 -183.6,-82.1 -46.6,-52.2 -68.9,-122.1 -61.1,-191.7 l 96.7,-860.3 c 14,-124.7 119.2,-218.8 244.7,-218.8 h 604.6 c 125.5,0 230.7,94.1 244.7,218.8 l 96.7,860.3 c 7.8,69.6 -14.5,139.5 -61.1,191.7"
         style="fill:#ffffff;fill-opacity:1;fill-rule:nonzero;stroke:none"
         transform="matrix(0.13333333,0,0,-0.13333333,0,3424)" />
      <path
         id="path22"
         d="m 37512.1,13933.2 -49.5,52.4 c -27,28.6 -71.5,31.5 -102,6.7 l -24.2,-19.6 c -27.6,-22.4 -35.8,-61.1 -19.5,-92.7 l 30.2,-59 c 19.9,-38.8 68.5,-52.6 105.8,-30 l 43.4,26.3 c 41,24.8 48.6,81.1 15.8,115.9"
         style="fill:#ffffff;fill-opacity:1;fill-rule:nonzero;stroke:none"
         transform="matrix(0.13333333,0,0,-0.13333333,0,3424)" />
      <path
         id="path23"
         d="m 37917.9,13917.5 -72.9,41.3 c -36.8,20.9 -83.5,7.4 -103.4,-29.9 l -22.5,-42.1 c -17.9,-33.4 -8.2,-74.8 22.6,-96.7 l 53.2,-37.9 c 28.9,-20.5 68.1,-18.2 94.3,5.7 l 42.3,38.7 c 37.8,34.4 30.9,95.7 -13.6,120.9"
         style="fill:#ffffff;fill-opacity:1;fill-rule:nonzero;stroke:none"
         transform="matrix(0.13333333,0,0,-0.13333333,0,3424)" />
      <path
         id="path24"
         d="m 37645,13638.9 -29,19.7 c -25.3,17.1 -58.4,17.2 -83.8,0.3 l -29.7,-19.8 c -37.5,-25 -44.7,-77.2 -15.4,-111.5 l 29.6,-34.4 c 30.1,-35.2 84.6,-35 114.5,0.5 l 29.1,34.5 c 28.8,34.2 21.7,85.7 -15.3,110.7"
         style="fill:#ffffff;fill-opacity:1;fill-rule:nonzero;stroke:none"
         transform="matrix(0.13333333,0,0,-0.13333333,0,3424)" />
      <path
         id="path25"
         d="m 38032.1,14560.3 c -124.4,-45.4 -259.1,-70.3 -399.8,-70.3 -140.7,0 -275.4,24.9 -399.8,70.3 -47.1,17.2 -94.9,-24.5 -82.1,-73 56.1,-213.7 250.5,-371.4 481.9,-371.4 231.4,0 425.8,157.7 481.9,371.4 12.8,48.5 -35,90.2 -82.1,73"
         style="fill:#ffffff;fill-opacity:1;fill-rule:nonzero;stroke:none"
         transform="matrix(0.13333333,0,0,-0.13333333,0,3424)" />
      <path
         id="path26"
         d="m 16546.8,14792.1 v 104.8 h -308.1 c -160.5,0 -235.4,-42.8 -235.4,-151.9 0,-102.7 83.5,-169.1 220.4,-169.1 175.5,0 310.3,92.1 323.1,216.2 z m 2.1,-261.1 c -81.3,-100.6 -211.8,-149.8 -376.6,-149.8 -246,0 -400.1,151.9 -400.1,353.1 0,207.6 156.2,340.2 430.1,342.4 h 344.5 v 34.2 c 0,143.4 -92,229 -271.8,229 -109.1,0 -222.5,-38.6 -335.9,-115.6 l -100.6,171.2 c 158.4,94.1 273.9,143.4 490,143.4 293.2,0 458,-149.8 460.1,-400.2 l 2.1,-746.8 h -241.8 v 139.1"
         style="fill:#14ae71;fill-opacity:1;fill-rule:nonzero;stroke:none"
         transform="matrix(0.13333333,0,0,-0.13333333,0,3424)" />
      <path
         id="path27"
         d="m 17959,14956.8 c 0,220.4 -143.3,374.5 -348.8,374.5 -205.4,0 -348.7,-156.2 -350.9,-374.5 2.2,-216.1 143.4,-370.2 350.9,-370.2 205.5,0 348.8,154.1 348.8,370.2 z m 246.1,-564.9 H 17959 v 194.7 c -81.3,-132.6 -218.2,-205.4 -400.1,-205.4 -327.4,0 -545.7,237.5 -545.7,584.2 0,342.4 220.4,575.6 541.4,575.6 184,0 321,-74.9 404.4,-207.6 v 646.3 h 246.1 v -1587.8"
         style="fill:#14ae71;fill-opacity:1;fill-rule:nonzero;stroke:none"
         transform="matrix(0.13333333,0,0,-0.13333333,0,3424)" />
      <path
         id="path28"
         d="m 19317.7,15425.4 -89.8,-181.8 c -100.6,62 -226.8,100.5 -327.4,100.5 -96.3,0 -166.9,-32.1 -166.9,-113.4 0,-209.7 605.5,-96.3 603.4,-509.2 0,-233.3 -207.6,-338.1 -436.5,-338.1 -166.9,0 -344.5,55.6 -457.9,158.3 l 87.7,175.5 c 98.4,-87.8 256.8,-141.3 380.9,-141.3 104.8,0 186.1,36.4 186.1,122 0,233.3 -599.1,102.7 -597,513.6 0,231.1 201.2,329.5 419.5,329.5 143.3,0 295.2,-42.8 397.9,-115.6"
         style="fill:#14ae71;fill-opacity:1;fill-rule:nonzero;stroke:none"
         transform="matrix(0.13333333,0,0,-0.13333333,0,3424)" />
      <path
         id="path29"
         d="m 20265.6,14792.1 v 104.8 h -308.1 c -160.5,0 -235.4,-42.8 -235.4,-151.9 0,-102.7 83.5,-169.1 220.4,-169.1 175.5,0 310.3,92.1 323.1,216.2 z m 2.2,-261.1 c -81.3,-100.6 -211.9,-149.8 -376.6,-149.8 -246.1,0 -400.2,151.9 -400.2,353.1 0,207.6 156.2,340.2 430.1,342.4 h 344.5 v 34.2 c 0,143.4 -92,229 -271.7,229 -109.2,0 -222.6,-38.6 -336,-115.6 l -100.5,171.2 c 158.3,94.1 273.8,143.4 490,143.4 293.1,0 457.9,-149.8 460,-400.2 l 2.2,-746.8 h -241.8 v 139.1"
         style="fill:#14ae71;fill-opacity:1;fill-rule:nonzero;stroke:none"
         transform="matrix(0.13333333,0,0,-0.13333333,0,3424)" />
      <path
         id="path30"
         d="m 20849.8,14391.9 v 1587.8 h 246 v -1587.8 h -246"
         style="fill:#14ae71;fill-opacity:1;fill-rule:nonzero;stroke:none"
         transform="matrix(0.13333333,0,0,-0.13333333,0,3424)" />
      <path
         id="path31"
         d="m 22114.4,14464.7 c -89.9,-53.5 -184.1,-83.5 -280.4,-83.5 -171.1,0 -318.8,98.5 -318.8,331.7 v 590.6 h -160.5 v 184 h 160.5 v 312.4 h 244 v -312.4 h 335.9 v -184 h -335.9 v -545.7 c 0,-117.7 44.9,-154 121.9,-154 51.4,0 104.9,17.1 171.2,49.2 l 62.1,-188.3"
         style="fill:#14ae71;fill-opacity:1;fill-rule:nonzero;stroke:none"
         transform="matrix(0.13333333,0,0,-0.13333333,0,3424)" />
      <path
         id="path32"
         d="m 15239.4,15998.6 c -46.6,52.2 -113.5,82.1 -183.5,82.1 h -798 c -70,0 -136.9,-29.9 -183.6,-82.1 -46.6,-52.2 -68.9,-122.1 -61.1,-191.7 l 96.7,-860.3 c 14,-124.7 119.2,-218.8 244.7,-218.8 h 604.6 c 125.5,0 230.7,94.1 244.7,218.8 l 96.7,860.3 c 7.8,69.6 -14.5,139.5 -61.2,191.7"
         style="fill:#14ae71;fill-opacity:1;fill-rule:nonzero;stroke:none"
         transform="matrix(0.13333333,0,0,-0.13333333,0,3424)" />
      <path
         id="path33"
         d="m 14536.6,13933.2 -49.4,52.4 c -27,28.6 -71.5,31.5 -102,6.7 l -24.2,-19.6 c -27.6,-22.4 -35.8,-61.1 -19.5,-92.7 l 30.2,-59 c 19.9,-38.8 68.5,-52.6 105.8,-30 l 43.4,26.3 c 41,24.8 48.6,81.1 15.7,115.9"
         style="fill:#14ae71;fill-opacity:1;fill-rule:nonzero;stroke:none"
         transform="matrix(0.13333333,0,0,-0.13333333,0,3424)" />
      <path
         id="path34"
         d="m 14942.5,13917.5 -72.9,41.3 c -36.8,20.9 -83.5,7.4 -103.4,-29.9 l -22.6,-42.1 c -17.8,-33.4 -8.1,-74.8 22.7,-96.7 l 53.2,-37.9 c 28.9,-20.5 68.1,-18.2 94.3,5.7 l 42.3,38.7 c 37.8,34.4 30.9,95.7 -13.6,120.9"
         style="fill:#14ae71;fill-opacity:1;fill-rule:nonzero;stroke:none"
         transform="matrix(0.13333333,0,0,-0.13333333,0,3424)" />
      <path
         id="path35"
         d="m 14669.6,13638.9 -29,19.7 c -25.3,17.1 -58.4,17.2 -83.9,0.3 l -29.6,-19.8 c -37.5,-25 -44.7,-77.2 -15.4,-111.5 l 29.5,-34.4 c 30.2,-35.2 84.7,-35 114.6,0.5 l 29.1,34.5 c 28.8,34.2 21.7,85.7 -15.3,110.7"
         style="fill:#14ae71;fill-opacity:1;fill-rule:nonzero;stroke:none"
         transform="matrix(0.13333333,0,0,-0.13333333,0,3424)" />
      <path
         id="path36"
         d="m 15056.7,14560.3 c -124.4,-45.4 -259.1,-70.3 -399.8,-70.3 -140.7,0 -275.4,24.9 -399.8,70.3 -47.1,17.2 -94.9,-24.5 -82.1,-73 56.1,-213.7 250.5,-371.4 481.9,-371.4 231.3,0 425.8,157.7 481.9,371.4 12.8,48.5 -35,90.2 -82.1,73"
         style="fill:#14ae71;fill-opacity:1;fill-rule:nonzero;stroke:none"
         transform="matrix(0.13333333,0,0,-0.13333333,0,3424)" />
      <path
         id="path37"
         d="m 63180.5,7253.4 v 74.3 h -218.3 c -113.7,0 -166.7,-30.3 -166.7,-107.6 0,-72.8 59.1,-119.8 156.1,-119.8 124.3,0 219.8,65.2 228.9,153.1 z m 1.5,-184.9 c -57.6,-71.3 -150,-106.1 -266.8,-106.1 -174.3,0 -283.4,107.6 -283.4,250.1 0,147 110.6,241 304.7,242.5 h 244 v 24.3 c 0,101.6 -65.2,162.2 -192.5,162.2 -77.3,0 -157.7,-27.3 -238,-81.9 l -71.2,121.3 c 112.1,66.7 194,101.6 347.1,101.6 207.7,0 324.4,-106.1 325.9,-283.5 l 1.5,-529.1 H 63182 v 98.6"
         style="fill:#141113;fill-opacity:1;fill-rule:nonzero;stroke:none"
         transform="matrix(0.13333333,0,0,-0.13333333,0,3424)" />
      <path
         id="path38"
         d="m 64181.1,7370.1 c 0,156.2 -101.6,265.3 -247.1,265.3 -145.5,0 -247.1,-110.6 -248.6,-265.3 1.5,-153.1 101.5,-262.2 248.6,-262.2 145.5,0 247.1,109.1 247.1,262.2 z m 174.3,-400.2 h -174.3 v 138 c -57.6,-94 -154.6,-145.5 -283.5,-145.5 -232,0 -386.6,168.2 -386.6,413.8 0,242.6 156.2,407.8 383.6,407.8 130.3,0 227.4,-53.1 286.5,-147.1 v 457.9 h 174.3 V 6969.9"
         style="fill:#141113;fill-opacity:1;fill-rule:nonzero;stroke:none"
         transform="matrix(0.13333333,0,0,-0.13333333,0,3424)" />
      <path
         id="path39"
         d="m 65143.7,7702.1 -63.7,-128.8 c -71.2,43.9 -160.6,71.2 -231.9,71.2 -68.2,0 -118.2,-22.7 -118.2,-80.3 0,-148.6 429,-68.2 427.5,-360.8 0,-165.3 -147.1,-239.5 -309.3,-239.5 -118.2,0 -244.1,39.4 -324.4,112.2 l 62.1,124.3 c 69.8,-62.2 182,-100.1 269.9,-100.1 74.3,0 131.9,25.8 131.9,86.4 0,165.3 -424.5,72.8 -423,363.8 0,163.8 142.5,233.5 297.1,233.5 101.6,0 209.2,-30.3 282,-81.9"
         style="fill:#141113;fill-opacity:1;fill-rule:nonzero;stroke:none"
         transform="matrix(0.13333333,0,0,-0.13333333,0,3424)" />
      <path
         id="path40"
         d="m 65815.3,7253.4 v 74.3 H 65597 c -113.7,0 -166.8,-30.3 -166.8,-107.6 0,-72.8 59.2,-119.8 156.2,-119.8 124.3,0 219.8,65.2 228.9,153.1 z m 1.5,-184.9 c -57.6,-71.3 -150.1,-106.1 -266.8,-106.1 -174.3,0 -283.5,107.6 -283.5,250.1 0,147 110.7,241 304.7,242.5 h 244.1 v 24.3 c 0,101.6 -65.2,162.2 -192.5,162.2 -77.4,0 -157.7,-27.3 -238,-81.9 l -71.3,121.3 c 112.2,66.7 194,101.6 347.1,101.6 207.7,0 324.5,-106.1 326,-283.5 l 1.5,-529.1 h -171.3 v 98.6"
         style="fill:#141113;fill-opacity:1;fill-rule:nonzero;stroke:none"
         transform="matrix(0.13333333,0,0,-0.13333333,0,3424)" />
      <path
         id="path41"
         d="m 66229.2,6969.9 v 1124.9 h 174.3 V 6969.9 h -174.3"
         style="fill:#141113;fill-opacity:1;fill-rule:nonzero;stroke:none"
         transform="matrix(0.13333333,0,0,-0.13333333,0,3424)" />
      <path
         id="path42"
         d="m 67125.1,7021.5 c -63.7,-37.9 -130.4,-59.1 -198.6,-59.1 -121.3,0 -225.9,69.7 -225.9,234.9 v 418.4 h -113.7 v 130.4 h 113.7 v 221.3 h 172.8 v -221.3 h 238 v -130.4 h -238 v -386.5 c 0,-83.4 31.9,-109.2 86.4,-109.2 36.4,0 74.3,12.1 121.3,34.9 l 44,-133.4"
         style="fill:#141113;fill-opacity:1;fill-rule:nonzero;stroke:none"
         transform="matrix(0.13333333,0,0,-0.13333333,0,3424)" />
      <path
         id="path43"
         d="m 65445.8,11091.7 c -46.6,52.2 -113.6,82.1 -183.6,82.1 h -797.9 c -70,0 -136.9,-29.9 -183.6,-82.1 -46.7,-52.2 -68.9,-122.1 -61.1,-191.6 l 96.7,-860.4 c 14,-124.7 119.2,-218.7 244.7,-218.7 h 604.6 c 125.4,0 230.7,94 244.7,218.7 l 96.6,860.4 c 7.9,69.5 -14.4,139.4 -61.1,191.6"
         style="fill:#141113;fill-opacity:1;fill-rule:nonzero;stroke:none"
         transform="matrix(0.13333333,0,0,-0.13333333,0,3424)" />
      <path
         id="path44"
         d="m 64743,9026.3 -49.4,52.4 c -27,28.6 -71.5,31.5 -102,6.7 l -24.3,-19.6 c -27.5,-22.4 -35.7,-61.1 -19.5,-92.7 l 30.3,-59 c 19.9,-38.7 68.5,-52.5 105.8,-30 l 43.4,26.3 c 41,24.8 48.6,81.1 15.7,115.9"
         style="fill:#141113;fill-opacity:1;fill-rule:nonzero;stroke:none"
         transform="matrix(0.13333333,0,0,-0.13333333,0,3424)" />
      <path
         id="path45"
         d="m 65148.9,9010.6 -73,41.4 c -36.7,20.8 -83.4,7.3 -103.3,-30 l -22.6,-42.1 c -17.8,-33.4 -8.1,-74.8 22.7,-96.7 l 53.2,-37.9 c 28.8,-20.5 68.1,-18.2 94.3,5.7 l 42.3,38.7 c 37.7,34.4 30.8,95.7 -13.6,120.9"
         style="fill:#141113;fill-opacity:1;fill-rule:nonzero;stroke:none"
         transform="matrix(0.13333333,0,0,-0.13333333,0,3424)" />
      <path
         id="path46"
         d="m 64876,8732 -29,19.7 c -25.3,17.1 -58.5,17.3 -83.9,0.3 l -29.6,-19.8 c -37.6,-25 -44.8,-77.2 -15.4,-111.4 l 29.5,-34.5 c 30.2,-35.2 84.7,-35 114.6,0.5 l 29.1,34.5 c 28.8,34.2 21.6,85.7 -15.3,110.7"
         style="fill:#141113;fill-opacity:1;fill-rule:nonzero;stroke:none"
         transform="matrix(0.13333333,0,0,-0.13333333,0,3424)" />
      <path
         id="path47"
         d="m 65263.1,9653.4 c -124.4,-45.4 -259.1,-70.3 -399.8,-70.3 -140.7,0 -275.5,24.9 -399.8,70.3 -47.1,17.2 -94.9,-24.5 -82.2,-73 56.2,-213.7 250.6,-371.4 482,-371.4 231.3,0 425.7,157.7 481.9,371.4 12.7,48.5 -35.1,90.2 -82.1,73"
         style="fill:#141113;fill-opacity:1;fill-rule:nonzero;stroke:none"
         transform="matrix(0.13333333,0,0,-0.13333333,0,3424)" />
      <path
         id="path48"
         d="m 39340.5,7253.4 v 74.3 h -218.3 c -113.7,0 -166.7,-30.3 -166.7,-107.6 0,-72.8 59.1,-119.8 156.1,-119.8 124.3,0 219.8,65.2 228.9,153.1 z m 1.6,-184.9 c -57.7,-71.3 -150.1,-106.1 -266.9,-106.1 -174.3,0 -283.4,107.6 -283.4,250.1 0,147 110.6,241 304.7,242.5 h 244 v 24.3 c 0,101.6 -65.2,162.2 -192.5,162.2 -77.3,0 -157.7,-27.3 -238,-81.9 l -71.2,121.3 c 112.1,66.7 194,101.6 347.1,101.6 207.7,0 324.4,-106.1 325.9,-283.5 l 1.5,-529.1 h -171.2 v 98.6"
         style="fill:#ffffff;fill-opacity:1;fill-rule:nonzero;stroke:none"
         transform="matrix(0.13333333,0,0,-0.13333333,0,3424)" />
      <path
         id="path49"
         d="m 40341.1,7370.1 c 0,156.2 -101.6,265.3 -247.1,265.3 -145.5,0 -247.1,-110.6 -248.6,-265.3 1.5,-153.1 101.5,-262.2 248.6,-262.2 145.5,0 247.1,109.1 247.1,262.2 z m 174.3,-400.2 h -174.3 v 138 c -57.6,-94 -154.6,-145.5 -283.5,-145.5 -232,0 -386.6,168.2 -386.6,413.8 0,242.6 156.2,407.8 383.6,407.8 130.3,0 227.4,-53.1 286.5,-147.1 v 457.9 h 174.3 V 6969.9"
         style="fill:#ffffff;fill-opacity:1;fill-rule:nonzero;stroke:none"
         transform="matrix(0.13333333,0,0,-0.13333333,0,3424)" />
      <path
         id="path50"
         d="m 41303.7,7702.1 -63.7,-128.8 c -71.2,43.9 -160.6,71.2 -231.9,71.2 -68.2,0 -118.2,-22.7 -118.2,-80.3 0,-148.6 429,-68.2 427.5,-360.8 0,-165.3 -147.1,-239.5 -309.3,-239.5 -118.2,0 -244.1,39.4 -324.4,112.2 l 62.1,124.3 c 69.8,-62.2 182,-100.1 269.9,-100.1 74.3,0 131.9,25.8 131.9,86.4 0,165.3 -424.5,72.8 -423,363.8 0,163.8 142.5,233.5 297.2,233.5 101.5,0 209.1,-30.3 281.9,-81.9"
         style="fill:#ffffff;fill-opacity:1;fill-rule:nonzero;stroke:none"
         transform="matrix(0.13333333,0,0,-0.13333333,0,3424)" />
      <path
         id="path51"
         d="m 41975.3,7253.4 v 74.3 H 41757 c -113.7,0 -166.8,-30.3 -166.8,-107.6 0,-72.8 59.2,-119.8 156.2,-119.8 124.3,0 219.8,65.2 228.9,153.1 z m 1.5,-184.9 c -57.6,-71.3 -150.1,-106.1 -266.8,-106.1 -174.3,0 -283.5,107.6 -283.5,250.1 0,147 110.7,241 304.7,242.5 h 244.1 v 24.3 c 0,101.6 -65.2,162.2 -192.5,162.2 -77.4,0 -157.7,-27.3 -238,-81.9 l -71.3,121.3 c 112.2,66.7 194,101.6 347.2,101.6 207.6,0 324.4,-106.1 325.9,-283.5 l 1.5,-529.1 h -171.3 v 98.6"
         style="fill:#ffffff;fill-opacity:1;fill-rule:nonzero;stroke:none"
         transform="matrix(0.13333333,0,0,-0.13333333,0,3424)" />
      <path
         id="path52"
         d="m 42389.2,6969.9 v 1124.9 h 174.3 V 6969.9 h -174.3"
         style="fill:#ffffff;fill-opacity:1;fill-rule:nonzero;stroke:none"
         transform="matrix(0.13333333,0,0,-0.13333333,0,3424)" />
      <path
         id="path53"
         d="m 43285.1,7021.5 c -63.7,-37.9 -130.4,-59.1 -198.6,-59.1 -121.3,0 -225.9,69.7 -225.9,234.9 v 418.4 h -113.7 v 130.4 h 113.7 v 221.3 h 172.8 v -221.3 h 238 v -130.4 h -238 v -386.5 c 0,-83.4 31.9,-109.2 86.4,-109.2 36.4,0 74.3,12.1 121.3,34.9 l 44,-133.4"
         style="fill:#ffffff;fill-opacity:1;fill-rule:nonzero;stroke:none"
         transform="matrix(0.13333333,0,0,-0.13333333,0,3424)" />
      <path
         id="path54"
         d="m 41605.8,11091.7 c -46.6,52.2 -113.6,82.1 -183.6,82.1 h -797.9 c -70,0 -136.9,-29.9 -183.6,-82.1 -46.6,-52.2 -68.9,-122.1 -61.1,-191.6 l 96.7,-860.4 c 14,-124.7 119.2,-218.7 244.7,-218.7 h 604.6 c 125.5,0 230.7,94 244.7,218.7 l 96.6,860.4 c 7.9,69.5 -14.4,139.4 -61.1,191.6"
         style="fill:#ffffff;fill-opacity:1;fill-rule:nonzero;stroke:none"
         transform="matrix(0.13333333,0,0,-0.13333333,0,3424)" />
      <path
         id="path55"
         d="m 40903,9026.3 -49.4,52.4 c -27,28.6 -71.5,31.5 -102,6.7 l -24.2,-19.6 c -27.6,-22.4 -35.8,-61.1 -19.6,-92.7 l 30.3,-59 c 19.9,-38.7 68.5,-52.5 105.8,-30 l 43.4,26.3 c 41,24.8 48.6,81.1 15.7,115.9"
         style="fill:#ffffff;fill-opacity:1;fill-rule:nonzero;stroke:none"
         transform="matrix(0.13333333,0,0,-0.13333333,0,3424)" />
      <path
         id="path56"
         d="m 41308.9,9010.6 -73,41.4 c -36.7,20.8 -83.4,7.3 -103.3,-30 l -22.6,-42.1 c -17.8,-33.4 -8.1,-74.8 22.7,-96.7 l 53.2,-37.9 c 28.8,-20.5 68.1,-18.2 94.3,5.7 l 42.3,38.7 c 37.7,34.4 30.8,95.7 -13.6,120.9"
         style="fill:#ffffff;fill-opacity:1;fill-rule:nonzero;stroke:none"
         transform="matrix(0.13333333,0,0,-0.13333333,0,3424)" />
      <path
         id="path57"
         d="m 41036,8732 -29,19.7 c -25.3,17.1 -58.5,17.3 -83.9,0.3 l -29.6,-19.8 c -37.6,-25 -44.8,-77.2 -15.4,-111.4 l 29.5,-34.5 c 30.2,-35.2 84.7,-35 114.6,0.5 l 29.1,34.5 c 28.8,34.2 21.6,85.7 -15.3,110.7"
         style="fill:#ffffff;fill-opacity:1;fill-rule:nonzero;stroke:none"
         transform="matrix(0.13333333,0,0,-0.13333333,0,3424)" />
      <path
         id="path58"
         d="m 41423.1,9653.4 c -124.4,-45.4 -259.1,-70.3 -399.8,-70.3 -140.7,0 -275.5,24.9 -399.8,70.3 -47.1,17.2 -94.9,-24.5 -82.2,-73 56.2,-213.7 250.6,-371.4 482,-371.4 231.3,0 425.7,157.7 481.9,371.4 12.7,48.5 -35.1,90.2 -82.1,73"
         style="fill:#ffffff;fill-opacity:1;fill-rule:nonzero;stroke:none"
         transform="matrix(0.13333333,0,0,-0.13333333,0,3424)" />
      <path
         id="path59"
         d="m 16365.1,7253.4 v 74.3 h -218.3 c -113.7,0 -166.7,-30.3 -166.7,-107.6 0,-72.8 59.1,-119.8 156.1,-119.8 124.3,0 219.8,65.2 228.9,153.1 z m 1.5,-184.9 c -57.6,-71.3 -150,-106.1 -266.8,-106.1 -174.3,0 -283.4,107.6 -283.4,250.1 0,147 110.6,241 304.7,242.5 h 244 v 24.3 c 0,101.6 -65.2,162.2 -192.5,162.2 -77.3,0 -157.7,-27.3 -238,-81.9 l -71.2,121.3 c 112.1,66.7 194,101.6 347.1,101.6 207.7,0 324.4,-106.1 325.9,-283.5 l 1.5,-529.1 h -171.3 v 98.6"
         style="fill:#14ae71;fill-opacity:1;fill-rule:nonzero;stroke:none"
         transform="matrix(0.13333333,0,0,-0.13333333,0,3424)" />
      <path
         id="path60"
         d="m 17365.7,7370.1 c 0,156.2 -101.6,265.3 -247.1,265.3 -145.6,0 -247.1,-110.6 -248.6,-265.3 1.5,-153.1 101.5,-262.2 248.6,-262.2 145.5,0 247.1,109.1 247.1,262.2 z m 174.3,-400.2 h -174.3 v 138 c -57.6,-94 -154.7,-145.5 -283.5,-145.5 -232,0 -386.6,168.2 -386.6,413.8 0,242.6 156.2,407.8 383.6,407.8 130.3,0 227.4,-53.1 286.5,-147.1 v 457.9 H 17540 V 6969.9"
         style="fill:#14ae71;fill-opacity:1;fill-rule:nonzero;stroke:none"
         transform="matrix(0.13333333,0,0,-0.13333333,0,3424)" />
      <path
         id="path61"
         d="m 18328.3,7702.1 -63.7,-128.8 c -71.2,43.9 -160.6,71.2 -231.9,71.2 -68.2,0 -118.2,-22.7 -118.2,-80.3 0,-148.6 429,-68.2 427.5,-360.8 0,-165.3 -147.1,-239.5 -309.3,-239.5 -118.2,0 -244.1,39.4 -324.4,112.2 l 62.1,124.3 c 69.8,-62.2 182,-100.1 269.9,-100.1 74.3,0 131.9,25.8 131.9,86.4 0,165.3 -424.5,72.8 -423,363.8 0,163.8 142.5,233.5 297.1,233.5 101.6,0 209.2,-30.3 282,-81.9"
         style="fill:#14ae71;fill-opacity:1;fill-rule:nonzero;stroke:none"
         transform="matrix(0.13333333,0,0,-0.13333333,0,3424)" />
      <path
         id="path62"
         d="m 18999.9,7253.4 v 74.3 h -218.3 c -113.7,0 -166.8,-30.3 -166.8,-107.6 0,-72.8 59.2,-119.8 156.2,-119.8 124.3,0 219.8,65.2 228.9,153.1 z m 1.5,-184.9 c -57.6,-71.3 -150.1,-106.1 -266.8,-106.1 -174.3,0 -283.5,107.6 -283.5,250.1 0,147 110.7,241 304.7,242.5 h 244.1 v 24.3 c 0,101.6 -65.2,162.2 -192.5,162.2 -77.4,0 -157.7,-27.3 -238,-81.9 l -71.3,121.3 c 112.2,66.7 194,101.6 347.1,101.6 207.7,0 324.5,-106.1 326,-283.5 l 1.5,-529.1 h -171.3 v 98.6"
         style="fill:#14ae71;fill-opacity:1;fill-rule:nonzero;stroke:none"
         transform="matrix(0.13333333,0,0,-0.13333333,0,3424)" />
      <path
         id="path63"
         d="m 19413.8,6969.9 v 1124.9 h 174.3 V 6969.9 h -174.3"
         style="fill:#14ae71;fill-opacity:1;fill-rule:nonzero;stroke:none"
         transform="matrix(0.13333333,0,0,-0.13333333,0,3424)" />
      <path
         id="path64"
         d="m 20309.7,7021.5 c -63.7,-37.9 -130.4,-59.1 -198.6,-59.1 -121.3,0 -225.9,69.7 -225.9,234.9 v 418.4 h -113.7 v 130.4 h 113.7 v 221.3 h 172.8 v -221.3 h 238 v -130.4 h -238 v -386.5 c 0,-83.4 31.9,-109.2 86.4,-109.2 36.4,0 74.3,12.1 121.3,34.9 l 44,-133.4"
         style="fill:#14ae71;fill-opacity:1;fill-rule:nonzero;stroke:none"
         transform="matrix(0.13333333,0,0,-0.13333333,0,3424)" />
      <path
         id="path65"
         d="m 18630.4,11091.7 c -46.6,52.2 -113.6,82.1 -183.6,82.1 h -797.9 c -70,0 -136.9,-29.9 -183.6,-82.1 -46.6,-52.2 -68.9,-122.1 -61.1,-191.6 l 96.7,-860.4 c 14,-124.7 119.2,-218.7 244.7,-218.7 h 604.6 c 125.4,0 230.6,94 244.7,218.7 l 96.6,860.4 c 7.9,69.5 -14.4,139.4 -61.1,191.6"
         style="fill:#14ae71;fill-opacity:1;fill-rule:nonzero;stroke:none"
         transform="matrix(0.13333333,0,0,-0.13333333,0,3424)" />
      <path
         id="path66"
         d="m 17927.6,9026.3 -49.4,52.4 c -27,28.6 -71.5,31.5 -102,6.7 l -24.3,-19.6 c -27.6,-22.4 -35.7,-61.1 -19.5,-92.7 l 30.3,-59 c 19.9,-38.7 68.5,-52.5 105.8,-30 l 43.4,26.3 c 41,24.8 48.6,81.1 15.7,115.9"
         style="fill:#14ae71;fill-opacity:1;fill-rule:nonzero;stroke:none"
         transform="matrix(0.13333333,0,0,-0.13333333,0,3424)" />
      <path
         id="path67"
         d="m 18333.5,9010.6 -73,41.4 c -36.7,20.8 -83.4,7.3 -103.3,-30 l -22.6,-42.1 c -17.8,-33.4 -8.1,-74.8 22.7,-96.7 l 53.2,-37.9 c 28.8,-20.5 68.1,-18.2 94.3,5.7 l 42.3,38.7 c 37.7,34.4 30.8,95.7 -13.6,120.9"
         style="fill:#14ae71;fill-opacity:1;fill-rule:nonzero;stroke:none"
         transform="matrix(0.13333333,0,0,-0.13333333,0,3424)" />
      <path
         id="path68"
         d="m 18060.6,8732 -29,19.7 c -25.3,17.1 -58.5,17.3 -83.9,0.3 l -29.6,-19.8 c -37.6,-25 -44.8,-77.2 -15.4,-111.4 l 29.5,-34.5 c 30.2,-35.2 84.7,-35 114.6,0.5 l 29.1,34.5 c 28.8,34.2 21.6,85.7 -15.3,110.7"
         style="fill:#14ae71;fill-opacity:1;fill-rule:nonzero;stroke:none"
         transform="matrix(0.13333333,0,0,-0.13333333,0,3424)" />
      <path
         id="path69"
         d="m 18447.7,9653.4 c -124.4,-45.4 -259.1,-70.3 -399.8,-70.3 -140.7,0 -275.5,24.9 -399.8,70.3 -47.1,17.2 -94.9,-24.5 -82.2,-73 56.2,-213.7 250.6,-371.4 482,-371.4 231.3,0 425.7,157.7 481.9,371.4 12.7,48.5 -35.1,90.2 -82.1,73"
         style="fill:#14ae71;fill-opacity:1;fill-rule:nonzero;stroke:none"
         transform="matrix(0.13333333,0,0,-0.13333333,0,3424)" />
      <path
         id="path70"
         d="m 52063.9,14776.7 v 104.8 h -308.1 c -160.5,0 -235.4,-42.8 -235.4,-151.9 0,-102.7 83.5,-169.1 220.4,-169.1 175.5,0 310.3,92 323.1,216.2 z m 2.1,-261.1 c -81.3,-100.6 -211.8,-149.8 -376.6,-149.8 -246,0 -400.1,151.9 -400.1,353.1 0,207.5 156.2,340.2 430.1,342.3 h 344.5 v 34.3 c 0,143.3 -92,228.9 -271.8,228.9 -109.1,0 -222.5,-38.5 -335.9,-115.5 l -100.6,171.2 c 158.4,94.1 273.9,143.3 490,143.3 293.2,0 458,-149.7 460.1,-400.1 l 2.1,-746.8 H 52066 v 139.1"
         style="fill:#141113;fill-opacity:1;fill-rule:nonzero;stroke:none"
         transform="matrix(0.13333333,0,0,-0.13333333,0,3424)" />
      <path
         id="path71"
         d="m 53476.1,14941.4 c 0,220.4 -143.3,374.5 -348.8,374.5 -205.4,0 -348.7,-156.2 -350.9,-374.5 2.2,-216.1 143.4,-370.2 350.9,-370.2 205.5,0 348.8,154.1 348.8,370.2 z m 246.1,-564.9 h -246.1 v 194.7 c -81.3,-132.6 -218.2,-205.4 -400.1,-205.4 -327.4,0 -545.7,237.5 -545.7,584.2 0,342.3 220.4,575.6 541.4,575.6 184,0 321,-74.9 404.4,-207.6 v 646.2 h 246.1 v -1587.7"
         style="fill:#141113;fill-opacity:1;fill-rule:nonzero;stroke:none"
         transform="matrix(0.13333333,0,0,-0.13333333,0,3424)" />
      <path
         id="path72"
         d="m 54834.8,15410 -89.8,-181.9 c -100.6,62.1 -226.8,100.6 -327.4,100.6 -96.3,0 -166.9,-32.1 -166.9,-113.4 0,-209.7 605.5,-96.3 603.4,-509.3 0,-233.2 -207.6,-338 -436.5,-338 -166.9,0 -344.5,55.6 -457.9,158.3 l 87.7,175.5 c 98.4,-87.8 256.8,-141.3 380.9,-141.3 104.8,0 186.1,36.4 186.1,122 0,233.2 -599.1,102.7 -597,513.5 0,231.1 201.2,329.6 419.4,329.6 143.4,0 295.3,-42.8 398,-115.6"
         style="fill:#141113;fill-opacity:1;fill-rule:nonzero;stroke:none"
         transform="matrix(0.13333333,0,0,-0.13333333,0,3424)" />
      <path
         id="path73"
         d="m 55782.7,14776.7 v 104.8 h -308.1 c -160.5,0 -235.4,-42.8 -235.4,-151.9 0,-102.7 83.5,-169.1 220.4,-169.1 175.5,0 310.3,92 323.1,216.2 z m 2.2,-261.1 c -81.4,-100.6 -211.9,-149.8 -376.6,-149.8 -246.1,0 -400.2,151.9 -400.2,353.1 0,207.5 156.2,340.2 430.1,342.3 h 344.5 v 34.3 c 0,143.3 -92,228.9 -271.7,228.9 -109.2,0 -222.6,-38.5 -336,-115.5 l -100.6,171.2 c 158.4,94.1 273.9,143.3 490.1,143.3 293.1,0 457.9,-149.7 460,-400.1 l 2.2,-746.8 h -241.8 v 139.1"
         style="fill:#141113;fill-opacity:1;fill-rule:nonzero;stroke:none"
         transform="matrix(0.13333333,0,0,-0.13333333,0,3424)" />
      <path
         id="path74"
         d="m 56366.9,14376.5 v 1587.7 h 246 v -1587.7 h -246"
         style="fill:#141113;fill-opacity:1;fill-rule:nonzero;stroke:none"
         transform="matrix(0.13333333,0,0,-0.13333333,0,3424)" />
      <path
         id="path75"
         d="m 57631.5,14449.3 c -89.9,-53.5 -184.1,-83.5 -280.4,-83.5 -171.1,0 -318.8,98.4 -318.8,331.7 v 590.6 h -160.5 v 184 h 160.5 v 312.4 h 244 v -312.4 h 335.9 v -184 h -335.9 v -545.7 c 0,-117.7 44.9,-154.1 121.9,-154.1 51.4,0 104.9,17.2 171.2,49.3 l 62.1,-188.3"
         style="fill:#141113;fill-opacity:1;fill-rule:nonzero;stroke:none"
         transform="matrix(0.13333333,0,0,-0.13333333,0,3424)" />
      <path
         id="path76"
         d="m 50713.5,15803.2 -96.7,-860.3 c -8.1,-71.6 -68.5,-125.6 -140.5,-125.6 h -604.6 c -72.1,0 -132.5,54 -140.5,125.6 l -96.7,860.3 c -4.5,40.6 7.9,79.6 35.1,110.1 27.2,30.4 64.6,47.1 105.4,47.1 h 798 c 40.7,0 78.2,-16.7 105.4,-47.1 27.1,-30.5 39.6,-69.5 35.1,-110.1 z m 56.8,192.3 c -50.1,56.1 -122.1,88.3 -197.3,88.3 h -798 c -75.3,0 -147.2,-32.2 -197.4,-88.3 -50.1,-56.1 -74.1,-131.2 -65.7,-206 l 96.7,-860.4 c 15.1,-134.1 128.2,-235.2 263.1,-235.2 h 604.6 c 134.9,0 248,101.1 263.1,235.2 l 96.6,860.4 c 8.5,74.8 -15.5,149.9 -65.7,206"
         style="fill:#141113;fill-opacity:1;fill-rule:nonzero;stroke:none"
         transform="matrix(0.13333333,0,0,-0.13333333,0,3424)" />
      <path
         id="path77"
         d="m 50053.7,13930.1 -49.4,52.4 c -27,28.6 -71.5,31.5 -102,6.7 l -24.2,-19.6 c -27.6,-22.4 -35.8,-61.1 -19.6,-92.7 l 30.3,-59 c 19.9,-38.7 68.5,-52.5 105.8,-30 l 43.4,26.3 c 41,24.8 48.6,81.1 15.7,115.9"
         style="fill:#141113;fill-opacity:1;fill-rule:nonzero;stroke:none"
         transform="matrix(0.13333333,0,0,-0.13333333,0,3424)" />
      <path
         id="path78"
         d="m 50459.6,13914.4 -72.9,41.4 c -36.8,20.8 -83.5,7.3 -103.4,-30 l -22.6,-42.1 c -17.8,-33.4 -8.1,-74.8 22.7,-96.7 l 53.2,-37.9 c 28.9,-20.5 68.1,-18.2 94.3,5.7 l 42.3,38.7 c 37.8,34.4 30.9,95.7 -13.6,120.9"
         style="fill:#141113;fill-opacity:1;fill-rule:nonzero;stroke:none"
         transform="matrix(0.13333333,0,0,-0.13333333,0,3424)" />
      <path
         id="path79"
         d="m 50186.7,13635.8 -29,19.7 c -25.3,17.1 -58.4,17.3 -83.9,0.3 l -29.6,-19.8 c -37.5,-25 -44.8,-77.2 -15.4,-111.4 l 29.5,-34.5 c 30.2,-35.2 84.7,-35 114.6,0.5 l 29.1,34.6 c 28.8,34.1 21.7,85.6 -15.3,110.6"
         style="fill:#141113;fill-opacity:1;fill-rule:nonzero;stroke:none"
         transform="matrix(0.13333333,0,0,-0.13333333,0,3424)" />
      <path
         id="path80"
         d="m 50174,14186 c -170,0 -319.4,111.9 -367.7,273.7 117.8,-41.6 241.4,-62.7 367.7,-62.7 126.3,0 249.9,21.1 367.7,62.7 -48.3,-161.8 -197.7,-273.7 -367.7,-273.7 z m 336.2,393.5 c -107.4,-39.2 -220.5,-59.1 -336.2,-59.1 -115.7,0 -228.8,19.9 -336.2,59.1 -41.5,15.1 -87.6,6.1 -120.1,-23.6 -32.1,-29.2 -45.2,-73.4 -34.2,-115.3 58.5,-222.6 260.2,-378 490.5,-378 230.3,0 432,155.4 490.4,378 11.1,41.9 -2,86.1 -34.1,115.3 -32.6,29.7 -78.6,38.7 -120.1,23.6"
         style="fill:#141113;fill-opacity:1;fill-rule:nonzero;stroke:none"
         transform="matrix(0.13333333,0,0,-0.13333333,0,3424)" />
      <path
         id="path81"
         d="m 28623.9,14776.7 v 104.8 h -308.1 c -160.5,0 -235.4,-42.8 -235.4,-151.9 0,-102.7 83.5,-169.1 220.4,-169.1 175.5,0 310.3,92 323.1,216.2 z m 2.1,-261.1 c -81.3,-100.6 -211.8,-149.8 -376.6,-149.8 -246,0 -400.1,151.9 -400.1,353.1 0,207.5 156.2,340.2 430.1,342.3 h 344.5 v 34.3 c 0,143.3 -92,228.9 -271.8,228.9 -109.1,0 -222.5,-38.5 -335.9,-115.5 l -100.6,171.2 c 158.4,94.1 273.9,143.3 490,143.3 293.2,0 458,-149.7 460.1,-400.1 l 2.1,-746.8 H 28626 v 139.1"
         style="fill:#ffffff;fill-opacity:1;fill-rule:nonzero;stroke:none"
         transform="matrix(0.13333333,0,0,-0.13333333,0,3424)" />
      <path
         id="path82"
         d="m 30036.1,14941.4 c 0,220.4 -143.3,374.5 -348.8,374.5 -205.4,0 -348.7,-156.2 -350.9,-374.5 2.2,-216.1 143.4,-370.2 350.9,-370.2 205.5,0 348.8,154.1 348.8,370.2 z m 246.1,-564.9 h -246.1 v 194.7 c -81.3,-132.6 -218.2,-205.4 -400.1,-205.4 -327.4,0 -545.7,237.5 -545.7,584.2 0,342.3 220.4,575.6 541.4,575.6 184,0 321,-74.9 404.4,-207.6 v 646.2 h 246.1 v -1587.7"
         style="fill:#ffffff;fill-opacity:1;fill-rule:nonzero;stroke:none"
         transform="matrix(0.13333333,0,0,-0.13333333,0,3424)" />
      <path
         id="path83"
         d="m 31394.8,15410 -89.8,-181.9 c -100.6,62.1 -226.8,100.6 -327.4,100.6 -96.3,0 -166.9,-32.1 -166.9,-113.4 0,-209.7 605.5,-96.3 603.4,-509.3 0,-233.2 -207.6,-338 -436.5,-338 -166.9,0 -344.5,55.6 -457.9,158.3 l 87.7,175.5 c 98.4,-87.8 256.8,-141.3 380.9,-141.3 104.8,0 186.1,36.4 186.1,122 0,233.2 -599.1,102.7 -597,513.5 0,231.1 201.2,329.6 419.5,329.6 143.3,0 295.2,-42.8 397.9,-115.6"
         style="fill:#ffffff;fill-opacity:1;fill-rule:nonzero;stroke:none"
         transform="matrix(0.13333333,0,0,-0.13333333,0,3424)" />
      <path
         id="path84"
         d="m 32342.7,14776.7 v 104.8 h -308.1 c -160.5,0 -235.4,-42.8 -235.4,-151.9 0,-102.7 83.5,-169.1 220.4,-169.1 175.5,0 310.3,92 323.1,216.2 z m 2.2,-261.1 c -81.4,-100.6 -211.9,-149.8 -376.6,-149.8 -246.1,0 -400.2,151.9 -400.2,353.1 0,207.5 156.2,340.2 430.1,342.3 h 344.5 v 34.3 c 0,143.3 -92,228.9 -271.7,228.9 -109.2,0 -222.6,-38.5 -336,-115.5 l -100.5,171.2 c 158.3,94.1 273.8,143.3 490,143.3 293.1,0 457.9,-149.7 460,-400.1 l 2.2,-746.8 h -241.8 v 139.1"
         style="fill:#ffffff;fill-opacity:1;fill-rule:nonzero;stroke:none"
         transform="matrix(0.13333333,0,0,-0.13333333,0,3424)" />
      <path
         id="path85"
         d="m 32926.9,14376.5 v 1587.7 h 246 v -1587.7 h -246"
         style="fill:#ffffff;fill-opacity:1;fill-rule:nonzero;stroke:none"
         transform="matrix(0.13333333,0,0,-0.13333333,0,3424)" />
      <path
         id="path86"
         d="m 34191.5,14449.3 c -89.9,-53.5 -184.1,-83.5 -280.4,-83.5 -171.1,0 -318.8,98.4 -318.8,331.7 v 590.6 h -160.5 v 184 h 160.5 v 312.4 h 244 v -312.4 h 335.9 v -184 h -335.9 v -545.7 c 0,-117.7 44.9,-154.1 121.9,-154.1 51.4,0 104.9,17.2 171.2,49.3 l 62.1,-188.3"
         style="fill:#ffffff;fill-opacity:1;fill-rule:nonzero;stroke:none"
         transform="matrix(0.13333333,0,0,-0.13333333,0,3424)" />
      <path
         id="path87"
         d="m 27273.5,15803.2 -96.7,-860.3 c -8.1,-71.6 -68.5,-125.6 -140.5,-125.6 h -604.6 c -72.1,0 -132.5,54 -140.5,125.6 l -96.7,860.3 c -4.5,40.6 7.9,79.6 35.1,110.1 27.2,30.4 64.6,47.1 105.4,47.1 h 798 c 40.8,0 78.2,-16.7 105.4,-47.1 27.2,-30.5 39.6,-69.5 35.1,-110.1 z m 56.8,192.3 c -50.1,56.1 -122.1,88.3 -197.3,88.3 h -798 c -75.3,0 -147.2,-32.2 -197.4,-88.3 -50.1,-56.1 -74.1,-131.2 -65.7,-206 l 96.7,-860.4 c 15.1,-134.1 128.2,-235.2 263.1,-235.2 h 604.6 c 134.9,0 248,101.1 263.1,235.2 l 96.7,860.4 c 8.4,74.8 -15.6,149.9 -65.8,206"
         style="fill:#ffffff;fill-opacity:1;fill-rule:nonzero;stroke:none"
         transform="matrix(0.13333333,0,0,-0.13333333,0,3424)" />
      <path
         id="path88"
         d="m 26613.7,13930.1 -49.4,52.4 c -27,28.6 -71.5,31.5 -102,6.7 l -24.2,-19.6 c -27.6,-22.4 -35.8,-61.1 -19.5,-92.7 l 30.2,-59 c 19.9,-38.7 68.5,-52.5 105.8,-30 l 43.4,26.3 c 41,24.8 48.6,81.1 15.7,115.9"
         style="fill:#ffffff;fill-opacity:1;fill-rule:nonzero;stroke:none"
         transform="matrix(0.13333333,0,0,-0.13333333,0,3424)" />
      <path
         id="path89"
         d="m 27019.6,13914.4 -72.9,41.4 c -36.8,20.8 -83.5,7.3 -103.4,-30 l -22.6,-42.1 c -17.8,-33.4 -8.1,-74.8 22.7,-96.7 l 53.2,-37.9 c 28.9,-20.5 68.1,-18.2 94.3,5.7 l 42.3,38.7 c 37.8,34.4 30.9,95.7 -13.6,120.9"
         style="fill:#ffffff;fill-opacity:1;fill-rule:nonzero;stroke:none"
         transform="matrix(0.13333333,0,0,-0.13333333,0,3424)" />
      <path
         id="path90"
         d="m 26746.7,13635.8 -29,19.7 c -25.3,17.1 -58.4,17.3 -83.9,0.3 l -29.6,-19.8 c -37.5,-25 -44.7,-77.2 -15.4,-111.4 l 29.5,-34.5 c 30.2,-35.2 84.7,-35 114.6,0.5 l 29.1,34.6 c 28.8,34.1 21.7,85.6 -15.3,110.6"
         style="fill:#ffffff;fill-opacity:1;fill-rule:nonzero;stroke:none"
         transform="matrix(0.13333333,0,0,-0.13333333,0,3424)" />
      <path
         id="path91"
         d="m 26734,14186 c -170,0 -319.4,111.9 -367.7,273.7 117.8,-41.6 241.4,-62.7 367.7,-62.7 126.3,0 249.9,21.1 367.7,62.7 -48.3,-161.8 -197.7,-273.7 -367.7,-273.7 z m 336.2,393.5 c -107.4,-39.2 -220.5,-59.1 -336.2,-59.1 -115.7,0 -228.8,19.9 -336.2,59.1 -41.5,15.1 -87.5,6.1 -120.1,-23.6 -32.1,-29.2 -45.2,-73.4 -34.2,-115.3 58.5,-222.6 260.2,-378 490.5,-378 230.3,0 432,155.4 490.4,378 11.1,41.9 -2,86.1 -34.1,115.3 -32.6,29.7 -78.6,38.7 -120.1,23.6"
         style="fill:#ffffff;fill-opacity:1;fill-rule:nonzero;stroke:none"
         transform="matrix(0.13333333,0,0,-0.13333333,0,3424)" />
      <path
         id="path92"
         d="m 5348.56,14776.7 v 104.8 h -308.13 c -160.48,0 -235.38,-42.8 -235.38,-151.9 0,-102.7 83.46,-169.1 220.41,-169.1 175.46,0 310.26,92 323.1,216.2 z m 2.14,-261.1 c -81.31,-100.6 -211.84,-149.8 -376.6,-149.8 -246.08,0 -400.14,151.9 -400.14,353.1 0,207.5 156.2,340.2 430.09,342.3 h 344.51 v 34.3 c 0,143.3 -92.02,228.9 -271.75,228.9 -109.13,0 -222.54,-38.5 -335.95,-115.5 l -100.57,171.2 c 158.34,94.1 273.89,143.3 490.01,143.3 293.16,0 457.92,-149.7 460.05,-400.1 l 2.15,-746.8 h -241.8 v 139.1"
         style="fill:#14ae71;fill-opacity:1;fill-rule:nonzero;stroke:none"
         transform="matrix(0.13333333,0,0,-0.13333333,0,3424)" />
      <path
         id="path93"
         d="m 6760.79,14941.4 c 0,220.4 -143.36,374.5 -348.79,374.5 -205.42,0 -348.79,-156.2 -350.93,-374.5 2.14,-216.1 143.37,-370.2 350.93,-370.2 205.43,0 348.79,154.1 348.79,370.2 z m 246.08,-564.9 h -246.08 v 194.7 c -81.31,-132.6 -218.26,-205.4 -400.14,-205.4 -327.4,0 -545.65,237.5 -545.65,584.2 0,342.3 220.4,575.6 541.36,575.6 184.03,0 320.98,-74.9 404.43,-207.6 v 646.2 h 246.08 v -1587.7"
         style="fill:#14ae71;fill-opacity:1;fill-rule:nonzero;stroke:none"
         transform="matrix(0.13333333,0,0,-0.13333333,0,3424)" />
      <path
         id="path94"
         d="m 8119.5,15410 -89.87,-181.9 c -100.57,62.1 -226.81,100.6 -327.39,100.6 -96.28,0 -166.9,-32.1 -166.9,-113.4 0,-209.7 605.56,-96.3 603.43,-509.3 0,-233.2 -207.57,-338 -436.53,-338 -166.9,0 -344.51,55.6 -457.91,158.3 l 87.73,175.5 c 98.43,-87.8 256.78,-141.3 380.88,-141.3 104.85,0 186.16,36.4 186.16,122 0,233.2 -599.13,102.7 -597,513.5 0,231.1 201.15,329.6 419.4,329.6 143.37,0 295.3,-42.8 398,-115.6"
         style="fill:#14ae71;fill-opacity:1;fill-rule:nonzero;stroke:none"
         transform="matrix(0.13333333,0,0,-0.13333333,0,3424)" />
      <path
         id="path95"
         d="m 9067.38,14776.7 v 104.8 h -308.13 c -160.49,0 -235.38,-42.8 -235.38,-151.9 0,-102.7 83.46,-169.1 220.41,-169.1 175.46,0 310.26,92 323.1,216.2 z m 2.14,-261.1 c -81.31,-100.6 -211.84,-149.8 -376.6,-149.8 -246.08,0 -400.15,151.9 -400.15,353.1 0,207.5 156.2,340.2 430.1,342.3 h 344.51 v 34.3 c 0,143.3 -92.01,228.9 -271.75,228.9 -109.14,0 -222.54,-38.5 -335.95,-115.5 l -100.57,171.2 c 158.34,94.1 273.89,143.3 490.01,143.3 293.16,0 457.92,-149.7 460.05,-400.1 l 2.15,-746.8 h -241.8 v 139.1"
         style="fill:#14ae71;fill-opacity:1;fill-rule:nonzero;stroke:none"
         transform="matrix(0.13333333,0,0,-0.13333333,0,3424)" />
      <path
         id="path96"
         d="m 9651.52,14376.5 v 1587.7 h 246.08 v -1587.7 h -246.08"
         style="fill:#14ae71;fill-opacity:1;fill-rule:nonzero;stroke:none"
         transform="matrix(0.13333333,0,0,-0.13333333,0,3424)" />
      <path
         id="path97"
         d="m 10916.1,14449.3 c -89.8,-53.5 -184,-83.5 -280.3,-83.5 -171.2,0 -318.8,98.4 -318.8,331.7 v 590.6 h -160.5 v 184 h 160.5 v 312.4 h 243.9 v -312.4 h 336 v -184 h -336 v -545.7 c 0,-117.7 44.9,-154.1 122,-154.1 51.3,0 104.8,17.2 171.2,49.3 l 62,-188.3"
         style="fill:#14ae71;fill-opacity:1;fill-rule:nonzero;stroke:none"
         transform="matrix(0.13333333,0,0,-0.13333333,0,3424)" />
      <path
         id="path98"
         d="m 3998.12,15803.2 -96.67,-860.3 c -8.05,-71.6 -68.45,-125.6 -140.5,-125.6 h -604.6 c -72.05,0 -132.45,54 -140.5,125.6 l -96.67,860.3 c -4.55,40.6 7.91,79.6 35.1,110.1 27.18,30.4 64.61,47.1 105.4,47.1 h 797.94 c 40.79,0 78.22,-16.7 105.4,-47.1 27.19,-30.5 39.65,-69.5 35.1,-110.1 z m 56.88,192.3 c -50.17,56.1 -122.11,88.3 -197.38,88.3 h -797.94 c -75.28,0 -147.21,-32.2 -197.38,-88.3 -50.17,-56.1 -74.12,-131.2 -65.71,-206 l 96.67,-860.4 c 15.06,-134.1 128.17,-235.2 263.09,-235.2 h 604.6 c 134.91,0 248.02,101.1 263.1,235.2 l 96.66,860.4 c 8.41,74.8 -15.54,149.9 -65.71,206"
         style="fill:#14ae71;fill-opacity:1;fill-rule:nonzero;stroke:none"
         transform="matrix(0.13333333,0,0,-0.13333333,0,3424)" />
      <path
         id="path99"
         d="m 3338.4,13930.1 -49.44,52.4 c -27.01,28.6 -71.48,31.5 -102.02,6.7 l -24.21,-19.6 c -27.59,-22.4 -35.74,-61.1 -19.52,-92.7 l 30.24,-59 c 19.89,-38.7 68.5,-52.5 105.8,-30 l 43.41,26.3 c 40.99,24.8 48.63,81.1 15.74,115.9"
         style="fill:#14ae71;fill-opacity:1;fill-rule:nonzero;stroke:none"
         transform="matrix(0.13333333,0,0,-0.13333333,0,3424)" />
      <path
         id="path100"
         d="m 3744.28,13914.4 -72.97,41.4 c -36.73,20.8 -83.42,7.3 -103.35,-30 l -22.56,-42.1 c -17.85,-33.4 -8.13,-74.8 22.67,-96.7 l 53.19,-37.9 c 28.85,-20.5 68.13,-18.2 94.29,5.7 l 42.34,38.7 c 37.73,34.4 30.84,95.7 -13.61,120.9"
         style="fill:#14ae71;fill-opacity:1;fill-rule:nonzero;stroke:none"
         transform="matrix(0.13333333,0,0,-0.13333333,0,3424)" />
      <path
         id="path101"
         d="m 3471.4,13635.8 -29.01,19.7 c -25.3,17.1 -58.46,17.3 -83.88,0.3 l -29.67,-19.8 c -37.53,-25 -44.73,-77.2 -15.38,-111.4 l 29.54,-34.5 c 30.16,-35.2 84.68,-35 114.55,0.5 l 29.14,34.6 c 28.75,34.1 21.64,85.6 -15.29,110.6"
         style="fill:#14ae71;fill-opacity:1;fill-rule:nonzero;stroke:none"
         transform="matrix(0.13333333,0,0,-0.13333333,0,3424)" />
      <path
         id="path102"
         d="m 3458.65,14186 c -170.02,0 -319.42,111.9 -367.7,273.7 117.77,-41.6 241.42,-62.7 367.71,-62.7 126.3,0 249.94,21.1 367.68,62.7 -48.27,-161.8 -197.67,-273.7 -367.69,-273.7 z m 336.21,393.5 c -107.39,-39.2 -220.51,-59.1 -336.2,-59.1 -115.69,0 -228.81,19.9 -336.22,59.1 -41.51,15.1 -87.53,6.1 -120.1,-23.6 -32.08,-29.2 -45.15,-73.4 -34.14,-115.3 58.48,-222.6 260.16,-378 490.45,-378 230.29,0 431.97,155.4 490.45,378 11.02,41.9 -2.06,86.1 -34.12,115.3 -32.58,29.7 -78.58,38.7 -120.12,23.6"
         style="fill:#14ae71;fill-opacity:1;fill-rule:nonzero;stroke:none"
         transform="matrix(0.13333333,0,0,-0.13333333,0,3424)" />
      <path
         id="path103"
         d="m 65461,20563.9 c -46.7,52.2 -113.6,82.2 -183.6,82.2 h -798 c -70,0 -136.9,-30 -183.5,-82.2 -46.7,-52.2 -69,-122 -61.1,-191.6 l 96.6,-860.3 c 14,-124.7 119.2,-218.8 244.7,-218.8 h 604.6 c 125.5,0 230.7,94.1 244.7,218.8 l 96.7,860.3 c 7.8,69.6 -14.5,139.4 -61.1,191.6"
         style="fill:#141113;fill-opacity:1;fill-rule:nonzero;stroke:none"
         transform="matrix(0.13333333,0,0,-0.13333333,0,3424)" />
      <path
         id="path104"
         d="m 64758.2,18498.6 -49.5,52.3 c -27,28.6 -71.4,31.6 -102,6.8 l -24.2,-19.6 c -27.6,-22.4 -35.7,-61.1 -19.5,-92.7 l 30.2,-59 c 19.9,-38.8 68.5,-52.6 105.8,-30 l 43.4,26.2 c 41,24.8 48.7,81.1 15.8,116"
         style="fill:#141113;fill-opacity:1;fill-rule:nonzero;stroke:none"
         transform="matrix(0.13333333,0,0,-0.13333333,0,3424)" />
      <path
         id="path105"
         d="m 65164,18482.8 -72.9,41.4 c -36.7,20.9 -83.4,7.3 -103.4,-29.9 l -22.5,-42.2 c -17.9,-33.3 -8.2,-74.7 22.6,-96.7 l 53.2,-37.8 c 28.9,-20.6 68.2,-18.2 94.3,5.7 l 42.4,38.6 c 37.7,34.5 30.8,95.7 -13.7,120.9"
         style="fill:#141113;fill-opacity:1;fill-rule:nonzero;stroke:none"
         transform="matrix(0.13333333,0,0,-0.13333333,0,3424)" />
      <path
         id="path106"
         d="m 64891.2,18204.3 -29,19.6 c -25.3,17.2 -58.5,17.3 -83.9,0.4 l -29.7,-19.8 c -37.5,-25 -44.7,-77.2 -15.4,-111.5 l 29.6,-34.4 c 30.1,-35.2 84.7,-35 114.5,0.4 l 29.2,34.6 c 28.7,34.1 21.6,85.6 -15.3,110.7"
         style="fill:#141113;fill-opacity:1;fill-rule:nonzero;stroke:none"
         transform="matrix(0.13333333,0,0,-0.13333333,0,3424)" />
      <path
         id="path107"
         d="m 65278.2,19125.7 c -124.3,-45.4 -259.1,-70.3 -399.8,-70.3 -140.7,0 -275.4,24.9 -399.8,70.3 -47,17.2 -94.9,-24.6 -82.1,-73 56.1,-213.8 250.6,-371.4 481.9,-371.4 231.4,0 425.8,157.6 482,371.4 12.7,48.4 -35.1,90.2 -82.2,73"
         style="fill:#141113;fill-opacity:1;fill-rule:nonzero;stroke:none"
         transform="matrix(0.13333333,0,0,-0.13333333,0,3424)" />
      <path
         id="path108"
         d="m 41621,20563.9 c -46.7,52.2 -113.6,82.2 -183.6,82.2 h -797.9 c -70.1,0 -137,-30 -183.6,-82.2 -46.7,-52.2 -69,-122 -61.1,-191.6 l 96.6,-860.3 c 14,-124.7 119.2,-218.8 244.7,-218.8 h 604.6 c 125.5,0 230.7,94.1 244.7,218.8 l 96.7,860.3 c 7.8,69.6 -14.5,139.4 -61.1,191.6"
         style="fill:#ffffff;fill-opacity:1;fill-rule:nonzero;stroke:none"
         transform="matrix(0.13333333,0,0,-0.13333333,0,3424)" />
      <path
         id="path109"
         d="m 40918.2,18498.6 -49.5,52.3 c -27,28.6 -71.4,31.6 -102,6.8 l -24.2,-19.6 c -27.6,-22.4 -35.7,-61.1 -19.5,-92.7 l 30.2,-59 c 19.9,-38.8 68.5,-52.6 105.8,-30 l 43.4,26.2 c 41,24.8 48.7,81.1 15.8,116"
         style="fill:#ffffff;fill-opacity:1;fill-rule:nonzero;stroke:none"
         transform="matrix(0.13333333,0,0,-0.13333333,0,3424)" />
      <path
         id="path110"
         d="m 41324.1,18482.8 -73,41.4 c -36.7,20.9 -83.4,7.3 -103.4,-29.9 l -22.5,-42.2 c -17.9,-33.3 -8.2,-74.7 22.7,-96.7 l 53.1,-37.8 c 28.9,-20.6 68.2,-18.2 94.3,5.7 l 42.4,38.6 c 37.7,34.5 30.8,95.7 -13.6,120.9"
         style="fill:#ffffff;fill-opacity:1;fill-rule:nonzero;stroke:none"
         transform="matrix(0.13333333,0,0,-0.13333333,0,3424)" />
      <path
         id="path111"
         d="m 41051.2,18204.3 -29,19.6 c -25.3,17.2 -58.5,17.3 -83.9,0.4 l -29.7,-19.8 c -37.5,-25 -44.7,-77.2 -15.4,-111.5 l 29.6,-34.4 c 30.1,-35.2 84.7,-35 114.5,0.4 l 29.2,34.6 c 28.7,34.1 21.6,85.6 -15.3,110.7"
         style="fill:#ffffff;fill-opacity:1;fill-rule:nonzero;stroke:none"
         transform="matrix(0.13333333,0,0,-0.13333333,0,3424)" />
      <path
         id="path112"
         d="m 41438.2,19125.7 c -124.3,-45.4 -259,-70.3 -399.8,-70.3 -140.7,0 -275.4,24.9 -399.8,70.3 -47,17.2 -94.8,-24.6 -82.1,-73 56.2,-213.8 250.6,-371.4 481.9,-371.4 231.4,0 425.8,157.6 482,371.4 12.7,48.4 -35.1,90.2 -82.2,73"
         style="fill:#ffffff;fill-opacity:1;fill-rule:nonzero;stroke:none"
         transform="matrix(0.13333333,0,0,-0.13333333,0,3424)" />
      <path
         id="path113"
         d="m 18645.6,20563.9 c -46.7,52.2 -113.6,82.2 -183.6,82.2 h -798 c -70,0 -136.9,-30 -183.5,-82.2 -46.7,-52.2 -69,-122 -61.2,-191.6 l 96.7,-860.3 c 14,-124.7 119.2,-218.8 244.7,-218.8 h 604.6 c 125.5,0 230.7,94.1 244.7,218.8 l 96.7,860.3 c 7.8,69.6 -14.5,139.4 -61.1,191.6"
         style="fill:#1a2f3a;fill-opacity:1;fill-rule:nonzero;stroke:none"
         transform="matrix(0.13333333,0,0,-0.13333333,0,3424)" />
      <path
         id="path114"
         d="m 17942.8,18498.6 -49.5,52.3 c -27,28.6 -71.4,31.6 -102,6.8 l -24.2,-19.6 c -27.6,-22.4 -35.7,-61.1 -19.5,-92.7 l 30.2,-59 c 19.9,-38.8 68.5,-52.6 105.8,-30 l 43.4,26.2 c 41,24.8 48.7,81.1 15.8,116"
         style="fill:#1a2f3a;fill-opacity:1;fill-rule:nonzero;stroke:none"
         transform="matrix(0.13333333,0,0,-0.13333333,0,3424)" />
      <path
         id="path115"
         d="m 18348.7,18482.8 -73,41.4 c -36.8,20.9 -83.4,7.3 -103.4,-29.9 l -22.5,-42.2 c -17.9,-33.3 -8.2,-74.7 22.6,-96.7 l 53.2,-37.8 c 28.9,-20.6 68.2,-18.2 94.3,5.7 l 42.4,38.6 c 37.7,34.5 30.8,95.7 -13.6,120.9"
         style="fill:#1a2f3a;fill-opacity:1;fill-rule:nonzero;stroke:none"
         transform="matrix(0.13333333,0,0,-0.13333333,0,3424)" />
      <path
         id="path116"
         d="m 18075.8,18204.3 -29,19.6 c -25.3,17.2 -58.5,17.3 -83.9,0.4 l -29.7,-19.8 c -37.5,-25 -44.7,-77.2 -15.4,-111.5 l 29.6,-34.4 c 30.1,-35.2 84.7,-35 114.5,0.4 l 29.2,34.6 c 28.7,34.1 21.6,85.6 -15.3,110.7"
         style="fill:#1a2f3a;fill-opacity:1;fill-rule:nonzero;stroke:none"
         transform="matrix(0.13333333,0,0,-0.13333333,0,3424)" />
      <path
         id="path117"
         d="m 18462.8,19125.7 c -124.4,-45.4 -259.1,-70.3 -399.8,-70.3 -140.7,0 -275.4,24.9 -399.8,70.3 -47,17.2 -94.9,-24.6 -82.1,-73 56.1,-213.8 250.6,-371.4 481.9,-371.4 231.4,0 425.8,157.6 482,371.4 12.7,48.4 -35.1,90.2 -82.2,73"
         style="fill:#1a2f3a;fill-opacity:1;fill-rule:nonzero;stroke:none"
         transform="matrix(0.13333333,0,0,-0.13333333,0,3424)" />
      <path
         id="path118"
         d="m 57205.4,3164.9 v 104.8 h -308.1 c -160.5,0 -235.4,-42.8 -235.4,-151.9 0,-102.7 83.5,-169.1 220.4,-169.1 175.5,0 310.3,92.1 323.1,216.2 z m 2.2,-261.1 c -81.4,-100.6 -211.9,-149.8 -376.6,-149.8 -246.1,0 -400.2,151.9 -400.2,353.1 0,207.6 156.2,340.2 430.1,342.4 h 344.5 v 34.2 c 0,143.4 -92,228.9 -271.7,228.9 -109.2,0 -222.6,-38.5 -336,-115.5 l -100.6,171.2 c 158.4,94.1 273.9,143.4 490,143.4 293.2,0 458,-149.8 460.1,-400.2 l 2.2,-746.8 h -241.8 v 139.1"
         style="fill:#141113;fill-opacity:1;fill-rule:nonzero;stroke:none"
         transform="matrix(0.13333333,0,0,-0.13333333,0,3424)" />
      <path
         id="path119"
         d="m 58617.6,3329.6 c 0,220.4 -143.3,374.5 -348.7,374.5 -205.5,0 -348.8,-156.2 -351,-374.5 2.2,-216.1 143.4,-370.2 351,-370.2 205.4,0 348.7,154.1 348.7,370.2 z m 246.1,-564.9 h -246.1 v 194.7 c -81.3,-132.6 -218.2,-205.4 -400.1,-205.4 -327.4,0 -545.6,237.5 -545.6,584.2 0,342.4 220.4,575.6 541.3,575.6 184,0 321,-74.9 404.4,-207.6 v 646.2 h 246.1 V 2764.7"
         style="fill:#141113;fill-opacity:1;fill-rule:nonzero;stroke:none"
         transform="matrix(0.13333333,0,0,-0.13333333,0,3424)" />
      <path
         id="path120"
         d="m 59976.4,3798.2 -89.9,-181.8 c -100.6,62 -226.8,100.5 -327.4,100.5 -96.3,0 -166.9,-32.1 -166.9,-113.4 0,-209.7 605.5,-96.3 603.4,-509.2 0,-233.3 -207.5,-338.1 -436.5,-338.1 -166.9,0 -344.5,55.6 -457.9,158.3 l 87.7,175.5 c 98.4,-87.8 256.8,-141.3 380.9,-141.3 104.8,0 186.2,36.4 186.2,122 0,233.3 -599.2,102.7 -597,513.6 0,231.1 201.1,329.5 419.4,329.5 143.3,0 295.2,-42.8 398,-115.6"
         style="fill:#141113;fill-opacity:1;fill-rule:nonzero;stroke:none"
         transform="matrix(0.13333333,0,0,-0.13333333,0,3424)" />
      <path
         id="path121"
         d="m 60924.2,3164.9 v 104.8 h -308.1 c -160.5,0 -235.4,-42.8 -235.4,-151.9 0,-102.7 83.5,-169.1 220.4,-169.1 175.5,0 310.3,92.1 323.1,216.2 z m 2.2,-261.1 c -81.3,-100.6 -211.9,-149.8 -376.6,-149.8 -246.1,0 -400.2,151.9 -400.2,353.1 0,207.6 156.2,340.2 430.1,342.4 h 344.5 v 34.2 c 0,143.4 -92,228.9 -271.7,228.9 -109.2,0 -222.6,-38.5 -336,-115.5 l -100.5,171.2 c 158.3,94.1 273.9,143.4 490,143.4 293.1,0 457.9,-149.8 460,-400.2 l 2.2,-746.8 h -241.8 v 139.1"
         style="fill:#141113;fill-opacity:1;fill-rule:nonzero;stroke:none"
         transform="matrix(0.13333333,0,0,-0.13333333,0,3424)" />
      <path
         id="path122"
         d="m 61508.4,2764.7 v 1587.7 h 246 V 2764.7 h -246"
         style="fill:#141113;fill-opacity:1;fill-rule:nonzero;stroke:none"
         transform="matrix(0.13333333,0,0,-0.13333333,0,3424)" />
      <path
         id="path123"
         d="m 62773,2837.5 c -89.9,-53.5 -184,-83.5 -280.3,-83.5 -171.2,0 -318.9,98.5 -318.9,331.7 v 590.6 h -160.5 v 184 h 160.5 v 312.4 h 244 v -312.4 h 335.9 v -184 h -335.9 v -545.7 c 0,-117.7 44.9,-154 121.9,-154 51.4,0 104.9,17.1 171.2,49.2 l 62.1,-188.3"
         style="fill:#141113;fill-opacity:1;fill-rule:nonzero;stroke:none"
         transform="matrix(0.13333333,0,0,-0.13333333,0,3424)" />
      <path
         id="path124"
         d="m 33114.4,3164.9 v 104.8 h -308.2 c -160.5,0 -235.3,-42.8 -235.3,-151.9 0,-102.7 83.4,-169.1 220.4,-169.1 175.4,0 310.2,92.1 323.1,216.2 z m 2.1,-261.1 c -81.3,-100.6 -211.8,-149.8 -376.6,-149.8 -246.1,0 -400.1,151.9 -400.1,353.1 0,207.6 156.2,340.2 430,342.4 h 344.6 v 34.2 c 0,143.4 -92.1,228.9 -271.8,228.9 -109.1,0 -222.5,-38.5 -335.9,-115.5 l -100.6,171.2 c 158.3,94.1 273.9,143.4 490,143.4 293.2,0 457.9,-149.8 460.1,-400.2 l 2.1,-746.8 h -241.8 v 139.1"
         style="fill:#ffffff;fill-opacity:1;fill-rule:nonzero;stroke:none"
         transform="matrix(0.13333333,0,0,-0.13333333,0,3424)" />
      <path
         id="path125"
         d="m 34526.6,3329.6 c 0,220.4 -143.4,374.5 -348.8,374.5 -205.4,0 -348.8,-156.2 -350.9,-374.5 2.1,-216.1 143.3,-370.2 350.9,-370.2 205.4,0 348.8,154.1 348.8,370.2 z m 246.1,-564.9 h -246.1 v 194.7 c -81.3,-132.6 -218.3,-205.4 -400.1,-205.4 -327.4,0 -545.7,237.5 -545.7,584.2 0,342.4 220.4,575.6 541.4,575.6 184,0 320.9,-74.9 404.4,-207.6 v 646.2 h 246.1 V 2764.7"
         style="fill:#ffffff;fill-opacity:1;fill-rule:nonzero;stroke:none"
         transform="matrix(0.13333333,0,0,-0.13333333,0,3424)" />
      <path
         id="path126"
         d="m 35885.3,3798.2 -89.9,-181.8 c -100.5,62 -226.8,100.5 -327.4,100.5 -96.2,0 -166.9,-32.1 -166.9,-113.4 0,-209.7 605.6,-96.3 603.5,-509.2 0,-233.3 -207.6,-338.1 -436.6,-338.1 -166.9,0 -344.5,55.6 -457.9,158.3 l 87.8,175.5 c 98.4,-87.8 256.7,-141.3 380.8,-141.3 104.9,0 186.2,36.4 186.2,122 0,233.3 -599.1,102.7 -597,513.6 0,231.1 201.1,329.5 419.4,329.5 143.4,0 295.3,-42.8 398,-115.6"
         style="fill:#ffffff;fill-opacity:1;fill-rule:nonzero;stroke:none"
         transform="matrix(0.13333333,0,0,-0.13333333,0,3424)" />
      <path
         id="path127"
         d="m 36833.2,3164.9 v 104.8 H 36525 c -160.4,0 -235.3,-42.8 -235.3,-151.9 0,-102.7 83.4,-169.1 220.4,-169.1 175.4,0 310.2,92.1 323.1,216.2 z m 2.1,-261.1 c -81.3,-100.6 -211.8,-149.8 -376.6,-149.8 -246.1,0 -400.1,151.9 -400.1,353.1 0,207.6 156.2,340.2 430.1,342.4 h 344.5 v 34.2 c 0,143.4 -92,228.9 -271.8,228.9 -109.1,0 -222.5,-38.5 -335.9,-115.5 l -100.6,171.2 c 158.4,94.1 273.9,143.4 490,143.4 293.2,0 457.9,-149.8 460.1,-400.2 l 2.1,-746.8 h -241.8 v 139.1"
         style="fill:#ffffff;fill-opacity:1;fill-rule:nonzero;stroke:none"
         transform="matrix(0.13333333,0,0,-0.13333333,0,3424)" />
      <path
         id="path128"
         d="m 37417.3,2764.7 v 1587.7 h 246.1 V 2764.7 h -246.1"
         style="fill:#ffffff;fill-opacity:1;fill-rule:nonzero;stroke:none"
         transform="matrix(0.13333333,0,0,-0.13333333,0,3424)" />
      <path
         id="path129"
         d="m 38681.9,2837.5 c -89.8,-53.5 -184,-83.5 -280.3,-83.5 -171.2,0 -318.8,98.5 -318.8,331.7 v 590.6 h -160.5 v 184 h 160.5 v 312.4 h 243.9 v -312.4 h 336 v -184 h -336 v -545.7 c 0,-117.7 44.9,-154 122,-154 51.3,0 104.8,17.1 171.2,49.2 l 62,-188.3"
         style="fill:#ffffff;fill-opacity:1;fill-rule:nonzero;stroke:none"
         transform="matrix(0.13333333,0,0,-0.13333333,0,3424)" />
      <path
         id="path130"
         d="m 9659.06,3164.9 v 104.8 h -308.14 c -160.49,0 -235.37,-42.8 -235.37,-151.9 0,-102.7 83.45,-169.1 220.4,-169.1 175.46,0 310.26,92.1 323.11,216.2 z m 2.13,-261.1 C 9579.88,2803.2 9449.35,2754 9284.58,2754 c -246.07,0 -400.14,151.9 -400.14,353.1 0,207.6 156.2,340.2 430.1,342.4 h 344.52 v 34.2 c 0,143.4 -92.02,228.9 -271.77,228.9 -109.13,0 -222.53,-38.5 -335.94,-115.5 l -100.57,171.2 c 158.34,94.1 273.89,143.4 490.01,143.4 293.16,0 457.92,-149.8 460.05,-400.2 l 2.15,-746.8 h -241.8 v 139.1"
         style="fill:#14ae71;fill-opacity:1;fill-rule:nonzero;stroke:none"
         transform="matrix(0.13333333,0,0,-0.13333333,0,3424)" />
      <path
         id="path131"
         d="m 11071.3,3329.6 c 0,220.4 -143.4,374.5 -348.8,374.5 -205.4,0 -348.8,-156.2 -350.9,-374.5 2.1,-216.1 143.3,-370.2 350.9,-370.2 205.4,0 348.8,154.1 348.8,370.2 z m 246.1,-564.9 h -246.1 v 194.7 C 10990,2826.8 10853,2754 10671.1,2754 c -327.4,0 -545.6,237.5 -545.6,584.2 0,342.4 220.4,575.6 541.4,575.6 184,0 320.9,-74.9 404.4,-207.6 v 646.2 h 246.1 V 2764.7"
         style="fill:#14ae71;fill-opacity:1;fill-rule:nonzero;stroke:none"
         transform="matrix(0.13333333,0,0,-0.13333333,0,3424)" />
      <path
         id="path132"
         d="m 12430,3798.2 -89.9,-181.8 c -100.5,62 -226.8,100.5 -327.4,100.5 -96.3,0 -166.9,-32.1 -166.9,-113.4 0,-209.7 605.6,-96.3 603.5,-509.2 0,-233.3 -207.6,-338.1 -436.6,-338.1 -166.9,0 -344.5,55.6 -457.9,158.3 l 87.7,175.5 c 98.5,-87.8 256.8,-141.3 380.9,-141.3 104.9,0 186.2,36.4 186.2,122 0,233.3 -599.1,102.7 -597,513.6 0,231.1 201.1,329.5 419.4,329.5 143.4,0 295.3,-42.8 398,-115.6"
         style="fill:#14ae71;fill-opacity:1;fill-rule:nonzero;stroke:none"
         transform="matrix(0.13333333,0,0,-0.13333333,0,3424)" />
      <path
         id="path133"
         d="m 13377.9,3164.9 v 104.8 h -308.2 c -160.4,0 -235.3,-42.8 -235.3,-151.9 0,-102.7 83.4,-169.1 220.4,-169.1 175.4,0 310.2,92.1 323.1,216.2 z m 2.1,-261.1 c -81.3,-100.6 -211.8,-149.8 -376.6,-149.8 -246.1,0 -400.1,151.9 -400.1,353.1 0,207.6 156.2,340.2 430.1,342.4 h 344.5 v 34.2 c 0,143.4 -92,228.9 -271.8,228.9 -109.1,0 -222.5,-38.5 -335.9,-115.5 l -100.6,171.2 c 158.3,94.1 273.9,143.4 490,143.4 293.2,0 457.9,-149.8 460.1,-400.2 l 2.1,-746.8 H 13380 v 139.1"
         style="fill:#14ae71;fill-opacity:1;fill-rule:nonzero;stroke:none"
         transform="matrix(0.13333333,0,0,-0.13333333,0,3424)" />
      <path
         id="path134"
         d="m 13962,2764.7 v 1587.7 h 246.1 V 2764.7 H 13962"
         style="fill:#14ae71;fill-opacity:1;fill-rule:nonzero;stroke:none"
         transform="matrix(0.13333333,0,0,-0.13333333,0,3424)" />
      <path
         id="path135"
         d="m 15226.6,2837.5 c -89.9,-53.5 -184,-83.5 -280.3,-83.5 -171.2,0 -318.8,98.5 -318.8,331.7 v 590.6 H 14467 v 184 h 160.5 v 312.4 h 243.9 v -312.4 h 336 v -184 h -336 v -545.7 c 0,-117.7 44.9,-154 122,-154 51.3,0 104.8,17.1 171.2,49.2 l 62,-188.3"
         style="fill:#14ae71;fill-opacity:1;fill-rule:nonzero;stroke:none"
         transform="matrix(0.13333333,0,0,-0.13333333,0,3424)" />
      <path
         id="path136"
         d="m 54110.3,20368.6 -96.6,-860.3 c -8.1,-71.6 -68.5,-125.6 -140.5,-125.6 h -604.6 c -72.1,0 -132.5,54 -140.5,125.6 l -96.7,860.3 c -4.6,40.5 7.9,79.6 35.1,110 27.2,30.4 64.6,47.2 105.4,47.2 h 797.9 c 40.8,0 78.3,-16.8 105.4,-47.2 27.2,-30.4 39.7,-69.5 35.1,-110 z m 56.9,192.2 c -50.2,56.2 -122.1,88.4 -197.4,88.4 h -797.9 c -75.3,0 -147.2,-32.2 -197.4,-88.4 -50.1,-56.1 -74.1,-131.2 -65.7,-206 l 96.7,-860.3 c 15,-134.1 128.1,-235.2 263.1,-235.2 h 604.6 c 134.9,0 248,101.1 263.1,235.2 l 96.6,860.3 c 8.4,74.8 -15.5,149.9 -65.7,206"
         style="fill:#141113;fill-opacity:1;fill-rule:nonzero;stroke:none"
         transform="matrix(0.13333333,0,0,-0.13333333,0,3424)" />
      <path
         id="path137"
         d="m 53450.6,18495.5 -49.4,52.4 c -27,28.5 -71.5,31.5 -102,6.7 l -24.2,-19.6 c -27.7,-22.4 -35.8,-61.1 -19.6,-92.7 l 30.3,-59 c 19.9,-38.8 68.5,-52.6 105.8,-30 l 43.4,26.3 c 41,24.8 48.6,81.1 15.7,115.9"
         style="fill:#141113;fill-opacity:1;fill-rule:nonzero;stroke:none"
         transform="matrix(0.13333333,0,0,-0.13333333,0,3424)" />
      <path
         id="path138"
         d="m 53856.5,18479.8 -73,41.3 c -36.7,20.9 -83.4,7.3 -103.3,-29.9 l -22.6,-42.1 c -17.8,-33.4 -8.1,-74.8 22.7,-96.7 l 53.2,-37.9 c 28.8,-20.6 68.1,-18.2 94.3,5.7 l 42.3,38.7 c 37.7,34.4 30.8,95.7 -13.6,120.9"
         style="fill:#141113;fill-opacity:1;fill-rule:nonzero;stroke:none"
         transform="matrix(0.13333333,0,0,-0.13333333,0,3424)" />
      <path
         id="path139"
         d="m 53583.6,18201.2 -29,19.7 c -25.3,17.1 -58.5,17.2 -83.9,0.3 l -29.7,-19.8 c -37.5,-25 -44.7,-77.2 -15.3,-111.5 l 29.5,-34.4 c 30.2,-35.2 84.7,-35 114.6,0.4 l 29.1,34.6 c 28.8,34.1 21.6,85.7 -15.3,110.7"
         style="fill:#141113;fill-opacity:1;fill-rule:nonzero;stroke:none"
         transform="matrix(0.13333333,0,0,-0.13333333,0,3424)" />
      <path
         id="path140"
         d="m 53570.9,18751.4 c -170.1,0 -319.5,111.9 -367.7,273.7 117.7,-41.6 241.4,-62.7 367.7,-62.7 126.3,0 249.9,21.1 367.7,62.7 -48.3,-161.8 -197.7,-273.7 -367.7,-273.7 z m 336.2,393.4 c -107.4,-39.2 -220.5,-59.1 -336.2,-59.1 -115.7,0 -228.8,19.9 -336.2,59.1 -41.6,15.2 -87.6,6.2 -120.1,-23.5 -32.1,-29.2 -45.2,-73.4 -34.2,-115.4 58.5,-222.5 260.2,-377.9 490.5,-377.9 230.3,0 431.9,155.4 490.4,377.9 11,42 -2,86.2 -34.1,115.4 -32.6,29.6 -78.6,38.7 -120.1,23.5"
         style="fill:#141113;fill-opacity:1;fill-rule:nonzero;stroke:none"
         transform="matrix(0.13333333,0,0,-0.13333333,0,3424)" />
      <path
         id="path141"
         d="m 30670.3,20368.6 -96.6,-860.3 c -8.1,-71.6 -68.5,-125.6 -140.5,-125.6 h -604.6 c -72.1,0 -132.5,54 -140.5,125.6 l -96.7,860.3 c -4.5,40.5 7.9,79.6 35.1,110 27.2,30.4 64.6,47.2 105.4,47.2 h 797.9 c 40.8,0 78.3,-16.8 105.4,-47.2 27.2,-30.4 39.7,-69.5 35.1,-110 z m 56.9,192.2 c -50.1,56.2 -122.1,88.4 -197.4,88.4 h -797.9 c -75.3,0 -147.2,-32.2 -197.4,-88.4 -50.1,-56.1 -74.1,-131.2 -65.7,-206 l 96.7,-860.3 c 15,-134.1 128.1,-235.2 263.1,-235.2 h 604.6 c 134.9,0 248,101.1 263.1,235.2 l 96.6,860.3 c 8.4,74.8 -15.5,149.9 -65.7,206"
         style="fill:#ffffff;fill-opacity:1;fill-rule:nonzero;stroke:none"
         transform="matrix(0.13333333,0,0,-0.13333333,0,3424)" />
      <path
         id="path142"
         d="m 30010.6,18495.5 -49.4,52.4 c -27,28.5 -71.5,31.5 -102,6.7 l -24.2,-19.6 c -27.6,-22.4 -35.8,-61.1 -19.6,-92.7 l 30.3,-59 c 19.9,-38.8 68.5,-52.6 105.8,-30 l 43.4,26.3 c 41,24.8 48.6,81.1 15.7,115.9"
         style="fill:#ffffff;fill-opacity:1;fill-rule:nonzero;stroke:none"
         transform="matrix(0.13333333,0,0,-0.13333333,0,3424)" />
      <path
         id="path143"
         d="m 30416.5,18479.8 -73,41.3 c -36.7,20.9 -83.4,7.3 -103.3,-29.9 l -22.6,-42.1 c -17.8,-33.4 -8.1,-74.8 22.7,-96.7 l 53.2,-37.9 c 28.8,-20.6 68.1,-18.2 94.3,5.7 l 42.3,38.7 c 37.7,34.4 30.8,95.7 -13.6,120.9"
         style="fill:#ffffff;fill-opacity:1;fill-rule:nonzero;stroke:none"
         transform="matrix(0.13333333,0,0,-0.13333333,0,3424)" />
      <path
         id="path144"
         d="m 30143.6,18201.2 -29,19.7 c -25.3,17.1 -58.4,17.2 -83.9,0.3 l -29.6,-19.8 c -37.6,-25 -44.8,-77.2 -15.4,-111.5 l 29.5,-34.4 c 30.2,-35.2 84.7,-35 114.6,0.4 l 29.1,34.6 c 28.8,34.1 21.6,85.7 -15.3,110.7"
         style="fill:#ffffff;fill-opacity:1;fill-rule:nonzero;stroke:none"
         transform="matrix(0.13333333,0,0,-0.13333333,0,3424)" />
      <path
         id="path145"
         d="m 30130.9,18751.4 c -170,0 -319.4,111.9 -367.7,273.7 117.7,-41.6 241.4,-62.7 367.7,-62.7 126.3,0 249.9,21.1 367.7,62.7 -48.3,-161.8 -197.7,-273.7 -367.7,-273.7 z m 336.2,393.4 c -107.4,-39.2 -220.5,-59.1 -336.2,-59.1 -115.7,0 -228.8,19.9 -336.2,59.1 -41.6,15.2 -87.6,6.2 -120.1,-23.5 -32.1,-29.2 -45.2,-73.4 -34.2,-115.4 58.5,-222.5 260.2,-377.9 490.5,-377.9 230.3,0 431.9,155.4 490.4,377.9 11,42 -2,86.2 -34.1,115.4 -32.6,29.6 -78.6,38.7 -120.1,23.5"
         style="fill:#ffffff;fill-opacity:1;fill-rule:nonzero;stroke:none"
         transform="matrix(0.13333333,0,0,-0.13333333,0,3424)" />
      <path
         id="path146"
         d="m 7394.99,20368.6 -96.66,-860.3 c -8.05,-71.6 -68.46,-125.6 -140.51,-125.6 h -604.6 c -72.05,0 -132.45,54 -140.49,125.6 l -96.67,860.3 c -4.56,40.5 7.91,79.6 35.09,110 27.18,30.4 64.62,47.2 105.4,47.2 h 797.95 c 40.78,0 78.21,-16.8 105.39,-47.2 27.19,-30.4 39.66,-69.5 35.1,-110 z m 56.89,192.2 c -50.17,56.2 -122.11,88.4 -197.38,88.4 h -797.95 c -75.27,0 -147.21,-32.2 -197.38,-88.4 -50.16,-56.1 -74.11,-131.2 -65.71,-206 l 96.67,-860.3 c 15.07,-134.1 128.17,-235.2 263.09,-235.2 h 604.6 c 134.92,0 248.03,101.1 263.1,235.2 l 96.67,860.3 c 8.4,74.8 -15.55,149.9 -65.71,206"
         style="fill:#14ae71;fill-opacity:1;fill-rule:nonzero;stroke:none"
         transform="matrix(0.13333333,0,0,-0.13333333,0,3424)" />
      <path
         id="path147"
         d="m 6735.28,18495.5 -49.45,52.4 c -27,28.5 -71.47,31.5 -102.01,6.7 l -24.21,-19.6 c -27.6,-22.4 -35.74,-61.1 -19.53,-92.7 l 30.25,-59 c 19.89,-38.8 68.5,-52.6 105.8,-30 l 43.41,26.3 c 40.99,24.8 48.63,81.1 15.74,115.9"
         style="fill:#14ae71;fill-opacity:1;fill-rule:nonzero;stroke:none"
         transform="matrix(0.13333333,0,0,-0.13333333,0,3424)" />
      <path
         id="path148"
         d="m 7141.16,18479.8 -72.97,41.3 c -36.74,20.9 -83.42,7.3 -103.35,-29.9 l -22.56,-42.1 c -17.85,-33.4 -8.14,-74.8 22.67,-96.7 l 53.18,-37.9 c 28.86,-20.6 68.14,-18.2 94.3,5.7 l 42.34,38.7 c 37.73,34.4 30.83,95.7 -13.61,120.9"
         style="fill:#14ae71;fill-opacity:1;fill-rule:nonzero;stroke:none"
         transform="matrix(0.13333333,0,0,-0.13333333,0,3424)" />
      <path
         id="path149"
         d="m 6868.27,18201.2 -29.01,19.7 c -25.3,17.1 -58.45,17.2 -83.88,0.3 l -29.67,-19.8 c -37.52,-25 -44.72,-77.2 -15.37,-111.5 l 29.53,-34.4 c 30.17,-35.2 84.69,-35 114.56,0.4 l 29.13,34.6 c 28.76,34.1 21.65,85.7 -15.29,110.7"
         style="fill:#14ae71;fill-opacity:1;fill-rule:nonzero;stroke:none"
         transform="matrix(0.13333333,0,0,-0.13333333,0,3424)" />
      <path
         id="path150"
         d="m 6855.53,18751.4 c -170.02,0 -319.43,111.9 -367.7,273.7 117.77,-41.6 241.41,-62.7 367.7,-62.7 126.3,0 249.95,21.1 367.69,62.7 -48.28,-161.8 -197.67,-273.7 -367.69,-273.7 z m 336.21,393.4 c -107.39,-39.2 -220.51,-59.1 -336.21,-59.1 -115.69,0 -228.81,19.9 -336.22,59.1 -41.5,15.2 -87.52,6.2 -120.1,-23.5 -32.07,-29.2 -45.15,-73.4 -34.14,-115.4 58.48,-222.5 260.17,-377.9 490.46,-377.9 230.29,0 431.97,155.4 490.44,377.9 11.02,42 -2.06,86.2 -34.11,115.4 -32.59,29.6 -78.58,38.7 -120.12,23.5"
         style="fill:#14ae71;fill-opacity:1;fill-rule:nonzero;stroke:none"
         transform="matrix(0.13333333,0,0,-0.13333333,0,3424)" />
      <path
         id="path151"
         d="m 51873,7250.3 v 74.3 h -218.3 c -113.7,0 -166.8,-30.3 -166.8,-107.6 0,-72.8 59.1,-119.8 156.2,-119.8 124.3,0 219.8,65.2 228.9,153.1 z m 1.5,-184.9 c -57.6,-71.3 -150.1,-106.1 -266.8,-106.1 -174.3,0 -283.5,107.6 -283.5,250.1 0,147.1 110.7,241 304.7,242.6 h 244.1 v 24.2 c 0,101.6 -65.2,162.2 -192.5,162.2 -77.4,0 -157.7,-27.3 -238.1,-81.8 l -71.2,121.2 c 112.2,66.7 194,101.6 347.1,101.6 207.7,0 324.4,-106.1 326,-283.5 l 1.5,-529 h -171.3 v 98.5"
         style="fill:#141113;fill-opacity:1;fill-rule:nonzero;stroke:none"
         transform="matrix(0.13333333,0,0,-0.13333333,0,3424)" />
      <path
         id="path152"
         d="m 52873.5,7367.1 c 0,156.1 -101.6,265.3 -247.1,265.3 -145.5,0 -247.1,-110.7 -248.6,-265.3 1.5,-153.1 101.6,-262.3 248.6,-262.3 145.5,0 247.1,109.2 247.1,262.3 z m 174.3,-400.2 h -174.3 v 137.9 c -57.6,-94 -154.6,-145.5 -283.5,-145.5 -231.9,0 -386.5,168.2 -386.5,413.8 0,242.6 156.1,407.8 383.5,407.8 130.4,0 227.4,-53 286.5,-147 v 457.8 h 174.3 V 6966.9"
         style="fill:#141113;fill-opacity:1;fill-rule:nonzero;stroke:none"
         transform="matrix(0.13333333,0,0,-0.13333333,0,3424)" />
      <path
         id="path153"
         d="m 53836.2,7699.1 -63.7,-128.9 c -71.3,44 -160.7,71.3 -231.9,71.3 -68.3,0 -118.3,-22.8 -118.3,-80.4 0,-148.6 429,-68.2 427.5,-360.8 0,-165.2 -147.1,-239.5 -309.2,-239.5 -118.3,0 -244.1,39.4 -324.5,112.2 l 62.2,124.3 c 69.7,-62.2 181.9,-100.1 269.8,-100.1 74.3,0 131.9,25.8 131.9,86.4 0,165.3 -424.4,72.8 -422.9,363.9 0,163.7 142.5,233.4 297.1,233.4 101.6,0 209.2,-30.3 282,-81.8"
         style="fill:#141113;fill-opacity:1;fill-rule:nonzero;stroke:none"
         transform="matrix(0.13333333,0,0,-0.13333333,0,3424)" />
      <path
         id="path154"
         d="m 54507.7,7250.3 v 74.3 h -218.3 c -113.7,0 -166.7,-30.3 -166.7,-107.6 0,-72.8 59.1,-119.8 156.1,-119.8 124.3,0 219.8,65.2 228.9,153.1 z m 1.5,-184.9 c -57.6,-71.3 -150,-106.1 -266.8,-106.1 -174.3,0 -283.4,107.6 -283.4,250.1 0,147.1 110.6,241 304.6,242.6 h 244.1 v 24.2 c 0,101.6 -65.2,162.2 -192.5,162.2 -77.3,0 -157.7,-27.3 -238,-81.8 l -71.3,121.2 c 112.2,66.7 194.1,101.6 347.2,101.6 207.7,0 324.4,-106.1 325.9,-283.5 l 1.5,-529 h -171.3 v 98.5"
         style="fill:#141113;fill-opacity:1;fill-rule:nonzero;stroke:none"
         transform="matrix(0.13333333,0,0,-0.13333333,0,3424)" />
      <path
         id="path155"
         d="m 54921.6,6966.9 v 1124.8 h 174.3 V 6966.9 h -174.3"
         style="fill:#141113;fill-opacity:1;fill-rule:nonzero;stroke:none"
         transform="matrix(0.13333333,0,0,-0.13333333,0,3424)" />
      <path
         id="path156"
         d="m 55817.5,7018.4 c -63.6,-37.9 -130.3,-59.1 -198.6,-59.1 -121.2,0 -225.8,69.7 -225.8,234.9 v 418.4 h -113.7 V 7743 h 113.7 v 221.3 h 172.8 V 7743 h 238 v -130.4 h -238 v -386.5 c 0,-83.4 31.8,-109.2 86.4,-109.2 36.4,0 74.3,12.2 121.3,34.9 l 43.9,-133.4"
         style="fill:#141113;fill-opacity:1;fill-rule:nonzero;stroke:none"
         transform="matrix(0.13333333,0,0,-0.13333333,0,3424)" />
      <path
         id="path157"
         d="m 54095.2,10896.4 -96.7,-860.4 c -8,-71.6 -68.4,-125.6 -140.5,-125.6 h -604.6 c -72,0 -132.4,54 -140.5,125.6 l -96.7,860.4 c -4.5,40.5 7.9,79.6 35.1,110 27.2,30.4 64.6,47.1 105.4,47.1 h 798 c 40.8,0 78.2,-16.7 105.4,-47.1 27.2,-30.4 39.6,-69.5 35.1,-110 z m 56.9,192.2 c -50.2,56.1 -122.2,88.3 -197.4,88.3 h -798 c -75.2,0 -147.2,-32.2 -197.3,-88.3 -50.2,-56.1 -74.2,-131.2 -65.8,-206 l 96.7,-860.4 c 15.1,-134 128.2,-235.2 263.1,-235.2 h 604.6 c 134.9,0 248,101.1 263.1,235.2 l 96.7,860.4 c 8.4,74.8 -15.6,149.9 -65.7,206"
         style="fill:#141113;fill-opacity:1;fill-rule:nonzero;stroke:none"
         transform="matrix(0.13333333,0,0,-0.13333333,0,3424)" />
      <path
         id="path158"
         d="m 53435.5,9023.2 -49.5,52.4 c -27,28.6 -71.5,31.5 -102,6.8 l -24.2,-19.7 c -27.6,-22.4 -35.8,-61 -19.5,-92.7 l 30.2,-58.9 c 19.9,-38.8 68.5,-52.6 105.8,-30.1 l 43.4,26.3 c 41,24.8 48.7,81.1 15.8,115.9"
         style="fill:#141113;fill-opacity:1;fill-rule:nonzero;stroke:none"
         transform="matrix(0.13333333,0,0,-0.13333333,0,3424)" />
      <path
         id="path159"
         d="m 53841.3,9007.5 -72.9,41.4 c -36.8,20.8 -83.5,7.3 -103.4,-29.9 l -22.5,-42.2 c -17.9,-33.3 -8.2,-74.8 22.6,-96.7 l 53.2,-37.9 c 28.9,-20.5 68.2,-18.1 94.3,5.8 l 42.3,38.6 c 37.8,34.5 30.9,95.7 -13.6,120.9"
         style="fill:#141113;fill-opacity:1;fill-rule:nonzero;stroke:none"
         transform="matrix(0.13333333,0,0,-0.13333333,0,3424)" />
      <path
         id="path160"
         d="m 53568.5,8728.9 -29.1,19.7 c -25.3,17.2 -58.4,17.3 -83.8,0.3 l -29.7,-19.7 c -37.5,-25.1 -44.7,-77.3 -15.4,-111.5 l 29.6,-34.5 c 30.1,-35.2 84.6,-34.9 114.5,0.5 l 29.1,34.6 c 28.8,34.1 21.7,85.6 -15.2,110.6"
         style="fill:#141113;fill-opacity:1;fill-rule:nonzero;stroke:none"
         transform="matrix(0.13333333,0,0,-0.13333333,0,3424)" />
      <path
         id="path161"
         d="m 53555.7,9279.1 c -170,0 -319.4,111.9 -367.7,273.7 117.8,-41.6 241.4,-62.7 367.7,-62.7 126.3,0 250,21.1 367.7,62.7 -48.3,-161.8 -197.7,-273.7 -367.7,-273.7 z m 336.2,393.5 c -107.4,-39.2 -220.5,-59.1 -336.2,-59.1 -115.7,0 -228.8,19.9 -336.2,59.1 -41.5,15.2 -87.5,6.1 -120.1,-23.6 -32.1,-29.2 -45.2,-73.4 -34.1,-115.3 58.4,-222.5 260.1,-378 490.4,-378 230.3,0 432,155.5 490.5,378 11,41.9 -2.1,86.1 -34.2,115.3 -32.6,29.7 -78.5,38.7 -120.1,23.6"
         style="fill:#141113;fill-opacity:1;fill-rule:nonzero;stroke:none"
         transform="matrix(0.13333333,0,0,-0.13333333,0,3424)" />
      <path
         id="path162"
         d="m 28433,7250.3 v 74.3 h -218.3 c -113.7,0 -166.8,-30.3 -166.8,-107.6 0,-72.8 59.2,-119.8 156.2,-119.8 124.3,0 219.8,65.2 228.9,153.1 z m 1.5,-184.9 c -57.6,-71.3 -150.1,-106.1 -266.8,-106.1 -174.3,0 -283.5,107.6 -283.5,250.1 0,147.1 110.7,241 304.7,242.6 h 244.1 v 24.2 c 0,101.6 -65.2,162.2 -192.5,162.2 -77.4,0 -157.7,-27.3 -238,-81.8 l -71.3,121.2 c 112.2,66.7 194,101.6 347.1,101.6 207.7,0 324.5,-106.1 326,-283.5 l 1.5,-529 h -171.3 v 98.5"
         style="fill:#ffffff;fill-opacity:1;fill-rule:nonzero;stroke:none"
         transform="matrix(0.13333333,0,0,-0.13333333,0,3424)" />
      <path
         id="path163"
         d="m 29433.5,7367.1 c 0,156.1 -101.5,265.3 -247.1,265.3 -145.5,0 -247.1,-110.7 -248.6,-265.3 1.5,-153.1 101.6,-262.3 248.6,-262.3 145.6,0 247.1,109.2 247.1,262.3 z m 174.4,-400.2 h -174.4 v 137.9 c -57.6,-94 -154.6,-145.5 -283.5,-145.5 -231.9,0 -386.5,168.2 -386.5,413.8 0,242.6 156.1,407.8 383.5,407.8 130.4,0 227.4,-53 286.5,-147 v 457.8 h 174.4 V 6966.9"
         style="fill:#ffffff;fill-opacity:1;fill-rule:nonzero;stroke:none"
         transform="matrix(0.13333333,0,0,-0.13333333,0,3424)" />
      <path
         id="path164"
         d="m 30396.2,7699.1 -63.7,-128.9 c -71.3,44 -160.7,71.3 -231.9,71.3 -68.3,0 -118.3,-22.8 -118.3,-80.4 0,-148.6 429,-68.2 427.5,-360.8 0,-165.2 -147,-239.5 -309.2,-239.5 -118.3,0 -244.1,39.4 -324.5,112.2 l 62.2,124.3 c 69.7,-62.2 181.9,-100.1 269.8,-100.1 74.3,0 131.9,25.8 131.9,86.4 0,165.3 -424.4,72.8 -422.9,363.9 0,163.7 142.5,233.4 297.1,233.4 101.6,0 209.2,-30.3 282,-81.8"
         style="fill:#ffffff;fill-opacity:1;fill-rule:nonzero;stroke:none"
         transform="matrix(0.13333333,0,0,-0.13333333,0,3424)" />
      <path
         id="path165"
         d="m 31067.7,7250.3 v 74.3 h -218.3 c -113.7,0 -166.7,-30.3 -166.7,-107.6 0,-72.8 59.1,-119.8 156.1,-119.8 124.3,0 219.8,65.2 228.9,153.1 z m 1.5,-184.9 c -57.6,-71.3 -150,-106.1 -266.8,-106.1 -174.3,0 -283.4,107.6 -283.4,250.1 0,147.1 110.6,241 304.7,242.6 h 244 v 24.2 c 0,101.6 -65.2,162.2 -192.5,162.2 -77.3,0 -157.7,-27.3 -238,-81.8 l -71.2,121.2 c 112.1,66.7 194,101.6 347.1,101.6 207.7,0 324.4,-106.1 325.9,-283.5 l 1.5,-529 h -171.3 v 98.5"
         style="fill:#ffffff;fill-opacity:1;fill-rule:nonzero;stroke:none"
         transform="matrix(0.13333333,0,0,-0.13333333,0,3424)" />
      <path
         id="path166"
         d="m 31481.6,6966.9 v 1124.8 h 174.3 V 6966.9 h -174.3"
         style="fill:#ffffff;fill-opacity:1;fill-rule:nonzero;stroke:none"
         transform="matrix(0.13333333,0,0,-0.13333333,0,3424)" />
      <path
         id="path167"
         d="m 32377.5,7018.4 c -63.6,-37.9 -130.3,-59.1 -198.6,-59.1 -121.2,0 -225.8,69.7 -225.8,234.9 v 418.4 h -113.7 V 7743 h 113.7 v 221.3 h 172.8 V 7743 h 238 v -130.4 h -238 v -386.5 c 0,-83.4 31.8,-109.2 86.4,-109.2 36.4,0 74.3,12.2 121.3,34.9 l 43.9,-133.4"
         style="fill:#ffffff;fill-opacity:1;fill-rule:nonzero;stroke:none"
         transform="matrix(0.13333333,0,0,-0.13333333,0,3424)" />
      <path
         id="path168"
         d="m 30655.2,10896.4 -96.7,-860.4 c -8,-71.6 -68.4,-125.6 -140.5,-125.6 h -604.6 c -72,0 -132.4,54 -140.5,125.6 l -96.7,860.4 c -4.5,40.5 8,79.6 35.1,110 27.2,30.4 64.7,47.1 105.4,47.1 h 798 c 40.8,0 78.2,-16.7 105.4,-47.1 27.2,-30.4 39.6,-69.5 35.1,-110 z m 56.9,192.2 c -50.2,56.1 -122.1,88.3 -197.4,88.3 h -798 c -75.2,0 -147.2,-32.2 -197.3,-88.3 -50.2,-56.1 -74.2,-131.2 -65.8,-206 l 96.7,-860.4 c 15.1,-134 128.2,-235.2 263.1,-235.2 h 604.6 c 134.9,0 248,101.1 263.1,235.2 l 96.7,860.4 c 8.4,74.8 -15.6,149.9 -65.7,206"
         style="fill:#ffffff;fill-opacity:1;fill-rule:nonzero;stroke:none"
         transform="matrix(0.13333333,0,0,-0.13333333,0,3424)" />
      <path
         id="path169"
         d="m 29995.5,9023.2 -49.5,52.4 c -27,28.6 -71.5,31.5 -102,6.8 l -24.2,-19.7 c -27.6,-22.4 -35.7,-61 -19.5,-92.7 l 30.2,-58.9 c 19.9,-38.8 68.5,-52.6 105.8,-30.1 l 43.4,26.3 c 41,24.8 48.7,81.1 15.8,115.9"
         style="fill:#ffffff;fill-opacity:1;fill-rule:nonzero;stroke:none"
         transform="matrix(0.13333333,0,0,-0.13333333,0,3424)" />
      <path
         id="path170"
         d="m 30401.3,9007.5 -72.9,41.4 c -36.8,20.8 -83.4,7.3 -103.4,-29.9 l -22.5,-42.2 c -17.9,-33.3 -8.2,-74.8 22.6,-96.7 l 53.2,-37.9 c 28.9,-20.5 68.2,-18.1 94.3,5.8 l 42.4,38.6 c 37.7,34.5 30.8,95.7 -13.7,120.9"
         style="fill:#ffffff;fill-opacity:1;fill-rule:nonzero;stroke:none"
         transform="matrix(0.13333333,0,0,-0.13333333,0,3424)" />
      <path
         id="path171"
         d="m 30128.5,8728.9 -29.1,19.7 c -25.2,17.2 -58.4,17.3 -83.8,0.3 l -29.7,-19.7 c -37.5,-25.1 -44.7,-77.3 -15.4,-111.5 l 29.6,-34.5 c 30.1,-35.2 84.6,-34.9 114.5,0.5 l 29.2,34.6 c 28.7,34.1 21.6,85.6 -15.3,110.6"
         style="fill:#ffffff;fill-opacity:1;fill-rule:nonzero;stroke:none"
         transform="matrix(0.13333333,0,0,-0.13333333,0,3424)" />
      <path
         id="path172"
         d="m 30115.7,9279.1 c -170,0 -319.4,111.9 -367.7,273.7 117.8,-41.6 241.4,-62.7 367.7,-62.7 126.3,0 250,21.1 367.7,62.7 -48.3,-161.8 -197.7,-273.7 -367.7,-273.7 z m 336.2,393.5 c -107.4,-39.2 -220.5,-59.1 -336.2,-59.1 -115.7,0 -228.8,19.9 -336.2,59.1 -41.5,15.2 -87.5,6.1 -120.1,-23.6 -32.1,-29.2 -45.2,-73.4 -34.1,-115.3 58.4,-222.5 260.1,-378 490.4,-378 230.3,0 432,155.5 490.5,378 11,41.9 -2.1,86.1 -34.2,115.3 -32.5,29.7 -78.5,38.7 -120.1,23.6"
         style="fill:#ffffff;fill-opacity:1;fill-rule:nonzero;stroke:none"
         transform="matrix(0.13333333,0,0,-0.13333333,0,3424)" />
      <path
         id="path173"
         d="m 5157.63,7250.3 v 74.3 h -218.3 c -113.7,0 -166.76,-30.3 -166.76,-107.6 0,-72.8 59.13,-119.8 156.16,-119.8 124.3,0 219.81,65.2 228.9,153.1 z m 1.52,-184.9 c -57.61,-71.3 -150.08,-106.1 -266.81,-106.1 -174.33,0 -283.48,107.6 -283.48,250.1 0,147.1 110.66,241 304.7,242.6 h 244.07 v 24.2 c 0,101.6 -65.19,162.2 -192.52,162.2 -77.32,0 -157.67,-27.3 -238.01,-81.8 l -71.25,121.2 c 112.18,66.7 194.05,101.6 347.15,101.6 207.69,0 324.41,-106.1 325.93,-283.5 l 1.51,-529 h -171.29 v 98.5"
         style="fill:#14ae71;fill-opacity:1;fill-rule:nonzero;stroke:none"
         transform="matrix(0.13333333,0,0,-0.13333333,0,3424)" />
      <path
         id="path174"
         d="m 6158.17,7367.1 c 0,156.1 -101.56,265.3 -247.1,265.3 -145.52,0 -247.1,-110.7 -248.61,-265.3 1.51,-153.1 101.57,-262.3 248.61,-262.3 145.54,0 247.1,109.2 247.1,262.3 z m 174.33,-400.2 h -174.33 v 137.9 c -57.59,-94 -154.62,-145.5 -283.48,-145.5 -231.94,0 -386.56,168.2 -386.56,413.8 0,242.6 156.14,407.8 383.54,407.8 130.37,0 227.39,-53 286.5,-147 v 457.8 H 6332.5 V 6966.9"
         style="fill:#14ae71;fill-opacity:1;fill-rule:nonzero;stroke:none"
         transform="matrix(0.13333333,0,0,-0.13333333,0,3424)" />
      <path
         id="path175"
         d="m 7120.82,7699.1 -63.68,-128.9 c -71.25,44 -160.68,71.3 -231.93,71.3 -68.22,0 -118.25,-22.8 -118.25,-80.4 0,-148.6 429.01,-68.2 427.51,-360.8 0,-165.2 -147.06,-239.5 -309.26,-239.5 -118.25,0 -244.07,39.4 -324.42,112.2 l 62.15,124.3 c 69.74,-62.2 181.92,-100.1 269.85,-100.1 74.28,0 131.89,25.8 131.89,86.4 0,165.3 -424.47,72.8 -422.95,363.9 0,163.7 142.5,233.4 297.12,233.4 101.57,0 209.2,-30.3 281.97,-81.8"
         style="fill:#14ae71;fill-opacity:1;fill-rule:nonzero;stroke:none"
         transform="matrix(0.13333333,0,0,-0.13333333,0,3424)" />
      <path
         id="path176"
         d="m 7792.38,7250.3 v 74.3 h -218.3 c -113.7,0 -166.76,-30.3 -166.76,-107.6 0,-72.8 59.14,-119.8 156.16,-119.8 124.3,0 219.81,65.2 228.9,153.1 z m 1.52,-184.9 c -57.61,-71.3 -150.08,-106.1 -266.81,-106.1 -174.33,0 -283.48,107.6 -283.48,250.1 0,147.1 110.66,241 304.7,242.6 h 244.07 v 24.2 c 0,101.6 -65.19,162.2 -192.52,162.2 -77.32,0 -157.67,-27.3 -238,-81.8 l -71.25,121.2 c 112.17,66.7 194.04,101.6 347.14,101.6 207.69,0 324.41,-106.1 325.93,-283.5 l 1.52,-529 h -171.3 v 98.5"
         style="fill:#14ae71;fill-opacity:1;fill-rule:nonzero;stroke:none"
         transform="matrix(0.13333333,0,0,-0.13333333,0,3424)" />
      <path
         id="path177"
         d="m 8206.26,6966.9 v 1124.8 h 174.33 V 6966.9 h -174.33"
         style="fill:#14ae71;fill-opacity:1;fill-rule:nonzero;stroke:none"
         transform="matrix(0.13333333,0,0,-0.13333333,0,3424)" />
      <path
         id="path178"
         d="m 9102.19,7018.4 c -63.67,-37.9 -130.38,-59.1 -198.6,-59.1 -121.27,0 -225.87,69.7 -225.87,234.9 v 418.4 H 8564.03 V 7743 h 113.69 v 221.3 h 172.82 V 7743 h 238 v -130.4 h -238 v -386.5 c 0,-83.4 31.84,-109.2 86.4,-109.2 36.39,0 74.29,12.2 121.29,34.9 l 43.96,-133.4"
         style="fill:#14ae71;fill-opacity:1;fill-rule:nonzero;stroke:none"
         transform="matrix(0.13333333,0,0,-0.13333333,0,3424)" />
      <path
         id="path179"
         d="m 7379.83,10896.4 -96.67,-860.4 c -8.04,-71.6 -68.44,-125.6 -140.49,-125.6 h -604.6 c -72.05,0 -132.45,54 -140.5,125.6 l -96.67,860.4 c -4.55,40.5 7.91,79.6 35.1,110 27.17,30.4 64.61,47.1 105.4,47.1 h 797.94 c 40.78,0 78.22,-16.7 105.4,-47.1 27.18,-30.4 39.64,-69.5 35.09,-110 z m 56.88,192.2 c -50.16,56.1 -122.11,88.3 -197.37,88.3 H 6441.4 c -75.28,0 -147.22,-32.2 -197.38,-88.3 -50.17,-56.1 -74.12,-131.2 -65.72,-206 l 96.67,-860.4 c 15.07,-134 128.17,-235.2 263.1,-235.2 h 604.6 c 134.91,0 248.02,101.1 263.09,235.2 l 96.67,860.4 c 8.4,74.8 -15.55,149.9 -65.72,206"
         style="fill:#14ae71;fill-opacity:1;fill-rule:nonzero;stroke:none"
         transform="matrix(0.13333333,0,0,-0.13333333,0,3424)" />
      <path
         id="path180"
         d="m 6720.12,9023.2 -49.45,52.4 c -27,28.6 -71.48,31.5 -102.01,6.8 l -24.21,-19.7 c -27.6,-22.4 -35.74,-61 -19.52,-92.7 l 30.24,-58.9 c 19.89,-38.8 68.5,-52.6 105.8,-30.1 l 43.41,26.3 c 40.99,24.8 48.63,81.1 15.74,115.9"
         style="fill:#14ae71;fill-opacity:1;fill-rule:nonzero;stroke:none"
         transform="matrix(0.13333333,0,0,-0.13333333,0,3424)" />
      <path
         id="path181"
         d="m 7126,9007.5 -72.97,41.4 c -36.74,20.8 -83.43,7.3 -103.35,-29.9 l -22.56,-42.2 c -17.85,-33.3 -8.14,-74.8 22.67,-96.7 l 53.19,-37.9 c 28.85,-20.5 68.13,-18.1 94.29,5.8 l 42.33,38.6 c 37.74,34.5 30.84,95.7 -13.6,120.9"
         style="fill:#14ae71;fill-opacity:1;fill-rule:nonzero;stroke:none"
         transform="matrix(0.13333333,0,0,-0.13333333,0,3424)" />
      <path
         id="path182"
         d="m 6853.11,8728.9 -29.01,19.7 c -25.29,17.2 -58.45,17.3 -83.88,0.3 l -29.66,-19.7 c -37.53,-25.1 -44.73,-77.3 -15.38,-111.5 l 29.54,-34.5 c 30.16,-35.2 84.67,-34.9 114.55,0.5 l 29.14,34.6 c 28.75,34.1 21.63,85.6 -15.3,110.6"
         style="fill:#14ae71;fill-opacity:1;fill-rule:nonzero;stroke:none"
         transform="matrix(0.13333333,0,0,-0.13333333,0,3424)" />
      <path
         id="path183"
         d="m 6840.37,9279.1 c -170.02,0 -319.42,111.9 -367.7,273.7 117.77,-41.6 241.41,-62.7 367.71,-62.7 126.29,0 249.94,21.1 367.68,62.7 -48.27,-161.8 -197.67,-273.7 -367.69,-273.7 z m 336.21,393.5 c -107.4,-39.2 -220.51,-59.1 -336.2,-59.1 -115.69,0 -228.82,19.9 -336.23,59.1 -41.5,15.2 -87.52,6.1 -120.1,-23.6 -32.07,-29.2 -45.14,-73.4 -34.13,-115.3 58.47,-222.5 260.16,-378 490.45,-378 230.28,0 431.96,155.5 490.45,378 11.01,41.9 -2.07,86.1 -34.13,115.3 -32.58,29.7 -78.57,38.7 -120.11,23.6"
         style="fill:#14ae71;fill-opacity:1;fill-rule:nonzero;stroke:none"
         transform="matrix(0.13333333,0,0,-0.13333333,0,3424)" />
    </g>
  </g>
</svg>
