<?xml version="1.0" encoding="UTF-8" standalone="no"?>
<!-- Created with Inkscape (http://www.inkscape.org/) -->

<svg
   version="1.1"
   id="svg1"
   width="172.06104"
   height="348.50342"
   viewBox="0 0 172.06104 348.50342"
   xmlns="http://www.w3.org/2000/svg"
   xmlns:svg="http://www.w3.org/2000/svg">
  <defs
     id="defs1" />
  <g
     id="g1"
     transform="translate(-2322.3693,-671.18671)">
    <g
       id="group-R5">
      <path
         id="path113"
         d="m 18645.6,20563.9 c -46.7,52.2 -113.6,82.2 -183.6,82.2 h -798 c -70,0 -136.9,-30 -183.5,-82.2 -46.7,-52.2 -69,-122 -61.2,-191.6 l 96.7,-860.3 c 14,-124.7 119.2,-218.8 244.7,-218.8 h 604.6 c 125.5,0 230.7,94.1 244.7,218.8 l 96.7,860.3 c 7.8,69.6 -14.5,139.4 -61.1,191.6"
         style="fill:#00d4aa;fill-opacity:1;fill-rule:nonzero;stroke:none"
         transform="matrix(0.13333333,0,0,-0.13333333,0,3424)" />
      <path
         id="path114"
         d="m 17942.8,18498.6 -49.5,52.3 c -27,28.6 -71.4,31.6 -102,6.8 l -24.2,-19.6 c -27.6,-22.4 -35.7,-61.1 -19.5,-92.7 l 30.2,-59 c 19.9,-38.8 68.5,-52.6 105.8,-30 l 43.4,26.2 c 41,24.8 48.7,81.1 15.8,116"
         style="fill:#00d4aa;fill-opacity:1;fill-rule:nonzero;stroke:none"
         transform="matrix(0.13333333,0,0,-0.13333333,0,3424)" />
      <path
         id="path115"
         d="m 18348.7,18482.8 -73,41.4 c -36.8,20.9 -83.4,7.3 -103.4,-29.9 l -22.5,-42.2 c -17.9,-33.3 -8.2,-74.7 22.6,-96.7 l 53.2,-37.8 c 28.9,-20.6 68.2,-18.2 94.3,5.7 l 42.4,38.6 c 37.7,34.5 30.8,95.7 -13.6,120.9"
         style="fill:#00d4aa;fill-opacity:1;fill-rule:nonzero;stroke:none"
         transform="matrix(0.13333333,0,0,-0.13333333,0,3424)" />
      <path
         id="path116"
         d="m 18075.8,18204.3 -29,19.6 c -25.3,17.2 -58.5,17.3 -83.9,0.4 l -29.7,-19.8 c -37.5,-25 -44.7,-77.2 -15.4,-111.5 l 29.6,-34.4 c 30.1,-35.2 84.7,-35 114.5,0.4 l 29.2,34.6 c 28.7,34.1 21.6,85.6 -15.3,110.7"
         style="fill:#00d4aa;fill-opacity:1;fill-rule:nonzero;stroke:none"
         transform="matrix(0.13333333,0,0,-0.13333333,0,3424)" />
      <path
         id="path117"
         d="m 18462.8,19125.7 c -124.4,-45.4 -259.1,-70.3 -399.8,-70.3 -140.7,0 -275.4,24.9 -399.8,70.3 -47,17.2 -94.9,-24.6 -82.1,-73 56.1,-213.8 250.6,-371.4 481.9,-371.4 231.4,0 425.8,157.6 482,371.4 12.7,48.4 -35.1,90.2 -82.2,73"
         style="fill:#00d4aa;fill-opacity:1;fill-rule:nonzero;stroke:none"
         transform="matrix(0.13333333,0,0,-0.13333333,0,3424)" />
    </g>
  </g>
</svg>
